<?xml version="1.0" encoding="utf-8"?>
<!-- Generator: Adobe Illustrator 24.1.2, SVG Export Plug-In . SVG Version: 6.00 Build 0)  -->
<svg version="1.1" id="Layer_1" xmlns="http://www.w3.org/2000/svg" xmlns:xlink="http://www.w3.org/1999/xlink" x="0px" y="0px"
	 viewBox="0 0 708.7 708.7" style="enable-background:new 0 0 708.7 708.7;" xml:space="preserve">
<style type="text/css">
	.st0{fill:#FFFFFF;stroke:#FFFFFF;stroke-miterlimit:10;}
	.st1{fill:#061123;}
	.st2{fill:#FFFFFF;}
	.st3{fill:#7F3300;}
</style>
<circle class="st0" cx="354.1" cy="354.2" r="309.2"/>
<g>
	<g>
		<g>
			<g>
				<g>
					<g>
						<path class="st1" d="M360.7,608.9"/>
					</g>
				</g>
				<g>
					<g>
						<g>
							<path class="st2" d="M360.2,599.3"/>
						</g>
					</g>
				</g>
				<g>
					<g>
						<path class="st1" d="M362.3,609.3c-0.2,0.6-0.7,1.1-1.3,1.2c-0.1,0-0.2,0-0.3,0c-0.5,0-1-0.3-1.4-0.7"/>
					</g>
				</g>
			</g>
			<g>
				<g>
					<g>
						<path class="st2" d="M357.8,597.3"/>
					</g>
				</g>
			</g>
			<g>
				<g>
					<g>
						<path class="st2" d="M361.6,597.3"/>
					</g>
				</g>
			</g>
		</g>
		<g>
			<path class="st1" d="M668.3,351.3c-0.1-3.5-0.7-7.1-1.9-10.7c0.9-2.7,1.3-5.9,1-9.6c-0.4-4.1-1.2-7.5-2.7-10.7
				c0.8-2.9,0.9-6.2,0.5-9.7c-0.3-3.1-1.4-6.5-3.5-10.5c0.7-3.3,0.6-6.6-0.1-9.8c-0.8-3.5-2.2-6.9-4.1-10.2c0.3-1.7,0.3-3.5,0-5.5
				c-0.2-1.4-0.5-2.9-0.9-4.3c-0.8-2.5-2-6.2-4.6-9.8c0.2-2.9-0.3-6.2-1.5-9.5v-0.1c-0.9-3-2.8-6.3-5.4-9.6c0-3.3-0.7-6.6-2.1-9.6
				c-1.5-3.2-3.5-6.3-6-9.2c-0.1-2.8-1-5.9-2.8-9.4c-1.3-2.4-3.3-5.8-6.6-8.8c-0.2-1.6-0.7-3.4-1.4-5.2c-0.5-1.3-1.1-2.5-1.8-3.8
				l-0.1-0.2c-1.5-2.7-3.8-5.4-7.1-8.3c-0.7-3.4-2-6.4-3.9-8.9l0,0c-2-2.8-4.6-5.5-7.6-7.8c-0.7-2.6-2.1-5.4-4.3-8.3l-0.3-0.3
				c-2.4-3-5.1-5.5-8.2-7.4c-1-2.8-2.7-5.7-5-8.4c-2.2-2.4-5.1-4.7-8.7-6.7c-0.6-1.5-1.5-3.1-2.6-4.8c-0.9-1.1-1.9-2.2-3-3.3
				c-2.5-2.4-5.5-4.5-8.9-6.2c-1.3-2.6-3.5-5.2-6.1-7.5c-1.3-1.2-2.8-2.2-4.4-3.2c-1.5-0.9-3.2-1.7-5-2.4c-1.5-2.6-3.7-5.1-6.6-7.3
				c-2.9-2.1-6.2-3.7-9.8-4.9c-0.8-1.3-1.7-2.4-2.8-3.5s-2.4-2.1-3.7-3l-0.6-0.4c-3.3-2.1-6.6-3.5-10.1-4.4c-1-1.3-2.3-2.6-3.8-3.8
				c-1.1-0.9-2.3-1.7-3.5-2.4l-0.2-0.1c-2.8-1.7-6.3-2.9-10.3-3.6c-2.1-2.3-4.8-4.3-7.8-5.8l-0.3-0.1l0,0c-3.2-1.4-6.6-2.3-10.3-2.8
				c-2-2.1-4.8-3.9-8.3-5.3c-3.8-1.4-7.3-2.2-10.8-2.3c-2.3-1.9-5.2-3.6-8.5-4.7c-3.1-1.1-6.8-1.6-10.9-1.5c-1.3-1-2.9-2-4.7-2.8
				c-1-0.4-2.1-0.9-3.3-1.2l-0.9-0.2c-3.4-0.8-7.1-1.1-10.8-0.8c-2.4-1.7-5.4-2.8-9.1-3.5H412c-3.8-0.6-7.4-0.7-10.9-0.2
				c-2.6-1.5-5.8-2.4-9.3-2.9c-1.5-0.2-2.8-0.3-4-0.3c-0.5,0-1,0-1.5,0c-1.8,0.1-3.7,0.4-5.5,0.8c-2.7-1.3-5.9-2.1-9.5-2.4
				c-3.4-0.1-7.2,0.4-10.9,1.4c-1.5-0.7-3.3-1.2-5.3-1.5c-1.4-0.2-2.9-0.3-4.4-0.2c-3.5,0.1-7.1,0.7-10.7,1.9
				c-2.6-0.9-5.8-1.3-9.7-1c-4.1,0.4-7.5,1.2-10.7,2.7c-2.8-0.8-6.2-0.9-9.7-0.5h-0.1c-0.2,0-0.4,0.1-0.6,0.1h-0.3l0,0
				c-2.8,0.4-5.9,1.5-9.4,3.3c-3.3-0.7-6.7-0.6-9.8,0.1l-0.9,0.2l0,0c-3.1,0.8-6.2,2.1-9.2,3.8c-1.7-0.3-3.6-0.3-5.4,0
				c-1.4,0.2-2.8,0.5-4.1,0.8l-0.2,0.1c-2.5,0.8-6.3,2.1-9.8,4.6c-2.9-0.1-6.2,0.4-9.4,1.5h-0.1c-3,0.9-6.3,2.8-9.6,5.4
				c-3.3,0-6.6,0.7-9.6,2.1l-0.7,0.3l0,0c-3,1.4-5.8,3.3-8.5,5.7c-2.8,0.1-5.9,1-9.4,2.8c-2.3,1.2-5.8,3.3-8.8,6.6
				c-1.7,0.2-3.4,0.7-5.2,1.4c-1.3,0.5-2.6,1.1-3.8,1.8l-0.1,0.1c-2.7,1.5-5.4,3.8-8.3,7.1c-3.4,0.7-6.4,2-8.9,3.9l-0.1,0.1
				c-2.8,2-5.4,4.6-7.7,7.6c-2.7,0.7-5.6,2.2-8.6,4.6l-0.5,0.4l0,0c-2.8,2.3-5.1,4.9-6.9,7.8c-2.7,0.9-5.5,2.6-8,4.7l-0.4,0.3
				c-2.4,2.2-4.7,5.1-6.7,8.7c-1.6,0.6-3.2,1.5-4.8,2.7c-1.1,0.9-2.2,1.9-3.3,2.9l-0.3,0.4l0,0c-2.3,2.5-4.2,5.3-5.9,8.6
				c-2.6,1.3-5.1,3.4-7.4,6l-0.1,0.2c-1.1,1.3-2.2,2.8-3.2,4.4c-0.9,1.5-1.7,3.2-2.4,5c-2.6,1.5-5.1,3.7-7.3,6.6
				c-2.1,2.9-3.7,6.2-4.9,9.8c-1.2,0.8-2.4,1.7-3.5,2.8c-1.2,1.2-2.3,2.7-3.3,4.2l-0.1,0.1c-2,3.2-3.5,6.6-4.4,10.1
				c-1.3,1-2.6,2.3-3.8,3.8c-0.8,1-1.6,2.2-2.3,3.3l-0.2,0.3c-1.7,2.9-2.9,6.3-3.6,10.3c-2.3,2.1-4.3,4.7-5.8,7.8l-0.1,0.2l0,0
				c-1.4,3.1-2.3,6.6-2.8,10.3c-2.1,2-3.9,4.8-5.3,8.3l-0.1,0.2l0,0c-1.4,3.7-2.1,7.1-2.2,10.5c-1.8,2.1-3.3,4.7-4.4,7.8l0,0
				c0,0.1-0.1,0.2-0.1,0.3l-0.1,0.4c-1.1,3.1-1.6,6.7-1.5,10.9c-1,1.3-2,2.9-2.8,4.7c-0.6,1.3-1.1,2.7-1.5,4.2v0.1
				c-0.8,3.4-1,7-0.8,10.7c-1.7,2.4-2.8,5.4-3.5,9.1v0.1c-0.6,3.8-0.7,7.4-0.2,10.9c-1.5,2.6-2.4,5.8-2.9,9.3v0.1
				c-0.2,2-0.3,3.7-0.2,5.4c0.1,1.8,0.4,3.6,0.8,5.5c-1.3,2.7-2.2,5.9-2.4,9.5c-0.1,3.4,0.4,7.2,1.4,10.9c-0.7,1.5-1.2,3.3-1.5,5.3
				c-0.2,1.4-0.2,2.9-0.2,4.4c0.1,3.5,0.7,7.1,1.9,10.7c-0.9,2.6-1.3,5.9-1,9.6c0.4,4.1,1.2,7.5,2.7,10.7c-0.7,2.9-0.9,6.2-0.5,9.7
				c0.3,3.1,1.4,6.5,3.5,10.5c-0.7,3.3-0.6,6.5,0.1,9.7v0.1c0.8,3.5,2.2,6.9,4.1,10.2c-0.3,1.7-0.3,3.5,0,5.5
				c0.2,1.5,0.5,2.9,0.9,4.3c0.8,2.5,2.1,6.3,4.6,9.8c-0.2,2.9,0.3,6.2,1.4,9.4v0.1c1,3,2.8,6.3,5.4,9.6c0,3.3,0.7,6.6,2.1,9.6
				c1.4,3.2,3.5,6.3,6,9.2c0.1,2.8,1,5.8,2.8,9.4c1.2,2.4,3.3,5.8,6.6,8.8c0.2,1.6,0.7,3.4,1.4,5.2c0.5,1.3,1.1,2.6,1.8,3.8l0.1,0.1
				c1.5,2.7,3.8,5.4,7.1,8.3c0.7,3.4,2,6.3,3.9,8.9l0.1,0.1c2,2.8,4.6,5.4,7.5,7.7c0.7,2.7,2.2,5.6,4.6,8.7c2.4,3,5.1,5.5,8.2,7.4
				c1,2.8,2.7,5.7,5,8.4c2.2,2.4,5.1,4.7,8.7,6.7c0.6,1.6,1.5,3.2,2.6,4.8c0.9,1.1,1.9,2.2,3,3.3c2.5,2.4,5.5,4.5,8.9,6.2
				c1.3,2.6,3.4,5.1,6,7.4l0.1,0.1c1.3,1.1,2.8,2.2,4.4,3.2c1.5,0.9,3.2,1.7,5,2.4c1.5,2.5,3.7,5,6.4,7.2l0.1,0.1
				c2.9,2.1,6.2,3.7,9.8,4.9c0.8,1.3,1.7,2.4,2.8,3.4c1.1,1.1,2.4,2.1,3.7,3l0.6,0.4c3.2,2,6.6,3.5,10.1,4.4c1,1.3,2.3,2.6,3.8,3.8
				c0.9,0.7,2,1.5,3,2.1l0.6,0.3c2.9,1.7,6.3,2.9,10.3,3.6c2.1,2.3,4.7,4.3,7.8,5.8l0.3,0.1l0,0c3.1,1.4,6.6,2.3,10.3,2.8
				c2,2.1,4.8,3.9,8.3,5.3c3.8,1.4,7.3,2.2,10.8,2.3c2.2,1.9,5.2,3.5,8.5,4.7c3,1.1,6.8,1.6,10.9,1.5c1.3,1,2.9,2,4.7,2.8
				c1.3,0.6,2.7,1.1,4.2,1.5l0,0c3.4,0.8,7,1,10.8,0.8c2.4,1.7,5.4,2.8,9.1,3.5h0.1c3.8,0.6,7.4,0.7,10.9,0.2
				c2.6,1.5,5.8,2.5,9.3,2.9c1.5,0.2,2.8,0.3,4,0.3c0.5,0,1,0,1.5,0c1.8-0.1,3.7-0.4,5.5-0.8c2.7,1.3,5.9,2.1,9.5,2.4
				c3.4,0.1,7.1-0.4,10.9-1.4c1.5,0.7,3.3,1.2,5.2,1.5c1.1,0.1,2.3,0.2,3.5,0.2c0.3,0,0.6,0,0.9,0c3.5-0.1,7.1-0.7,10.7-1.9
				c2.7,0.9,5.8,1.3,9.6,1c4.1-0.4,7.5-1.2,10.7-2.7c2.8,0.7,6.3,0.9,9.7,0.5c3.1-0.3,6.5-1.5,10.5-3.5c3.3,0.7,6.7,0.6,9.8-0.1
				c3.5-0.8,6.9-2.2,10.2-4.1c1.7,0.3,3.6,0.3,5.4,0c1.4-0.2,2.9-0.5,4.3-0.9c2.5-0.8,6.3-2.1,9.8-4.6c2.9,0.2,6.2-0.4,9.4-1.4h0.1
				c3-1,6.3-2.8,9.6-5.4c3.3,0,6.6-0.7,9.6-2.1c3.2-1.5,6.3-3.5,9.2-6c2.8-0.1,5.9-1,9.4-2.8l0.2-0.1c2.4-1.3,5.7-3.3,8.7-6.5
				c1.7-0.2,3.4-0.7,5.2-1.4c1.3-0.5,2.6-1.1,3.8-1.8l0.1-0.1c2.7-1.5,5.4-3.8,8.3-7.1c3.3-0.7,6.3-2,8.9-3.9l0,0
				c2.9-2,5.5-4.6,7.8-7.6c2.6-0.7,5.4-2.1,8.3-4.3l0.3-0.3c3-2.4,5.5-5.1,7.4-8.2c2.8-1,5.7-2.7,8.4-5c2.4-2.2,4.7-5.1,6.7-8.7
				c1.5-0.6,3.1-1.5,4.8-2.7c1.1-0.9,2.2-1.9,3.3-2.9l0.3-0.3l0,0c2.3-2.4,4.3-5.4,5.9-8.6c2.6-1.4,5.2-3.5,7.5-6.1
				c1.1-1.3,2.2-2.8,3.2-4.4c0.9-1.5,1.7-3.2,2.4-5c2.6-1.5,5.1-3.7,7.3-6.5l0.3-0.3l0,0c1.9-2.8,3.5-6,4.7-9.5
				c1.2-0.8,2.4-1.7,3.5-2.8c1.2-1.3,2.3-2.7,3.3-4.3c2.1-3.3,3.5-6.6,4.4-10.1c1.3-1,2.6-2.3,3.8-3.8c0.9-1.1,1.7-2.4,2.5-3.6
				l0.1-0.1c1.7-2.8,2.9-6.3,3.6-10.2c2.2-1.9,4-4.4,5.4-7.1l0.4-0.7c1.5-3.2,2.4-6.8,2.9-10.6c2.1-2,3.9-4.8,5.3-8.3l0.1-0.2l0,0
				c1.4-3.7,2.1-7.2,2.2-10.6c1.9-2.2,3.5-5.2,4.7-8.5c1.1-3,1.6-6.7,1.5-10.9c1-1.3,1.9-2.9,2.8-4.7c0.6-1.3,1.1-2.7,1.4-4.2
				c0.8-3.4,1.1-7,0.8-10.8c1.7-2.4,2.9-5.5,3.5-9.1v-0.1c0.6-3.8,0.7-7.4,0.2-10.9c1.5-2.6,2.4-5.8,2.9-9.3c0.2-2,0.3-3.8,0.2-5.5
				c-0.1-1.8-0.4-3.6-0.8-5.5c1.3-2.7,2.2-5.9,2.4-9.5c0.1-3.4-0.4-7.2-1.4-10.9c0.7-1.5,1.2-3.3,1.5-5.3
				C668.2,354.3,668.3,352.8,668.3,351.3z M258.9,62.7l0.1,1.2c1.6,0,3,0.3,4,0.7l0.4,0.2c3.5,2,6.9,4.3,9.9,6.4l5.8,4.1l3.1,2.1
				c1.5,1,3,2,4.5,2.8c-0.7,0.2-1.3,0.4-2,0.6c-1,0.2-1.9,0.5-2.9,0.6c-2.3,0.3-4.7,0.2-7.1-0.3c-1.7-0.3-3.6-0.9-5.5-1.8
				c-2.7-1.2-5.5-2.8-8.9-4.9l-0.4-0.3c-2.4-1.5-4.9-3.1-7.5-4.6c-1.4-0.9-2.9-1.7-4.6-2.5c1.5-0.9,3-1.6,4.4-2
				c2.3-0.8,4.6-1.2,6.7-1.2V62.7L258.9,62.7z M412.4,657.2c-1.7-0.3-3.2-0.8-4.3-1.6c-3.2-2.4-6.1-4.8-8.9-7.5l-1.9-1.8
				c-3.5-3.3-6.8-6.5-10.3-9c0.7-0.2,1.4-0.3,2.1-0.4c3-0.4,6.4,0,9.9,1.2c1.8,0.6,3.6,1.4,5.1,2.3c2.8,1.7,5.6,4,8.2,6.1
				c2,1.8,4.3,3.5,7.2,5.7c1.6,1.2,3,2.2,4.2,3.1c-1.6,0.7-3.1,1.2-4.7,1.5C417.2,657.4,414.8,657.5,412.4,657.2z M372.4,662.1
				c-1.3-0.3-2.6-1-3.6-1.8l-0.3-0.3c-2.9-2.8-5.6-5.9-7.9-8.7c-1.5-1.9-3.1-3.7-4.5-5.4l-1.7-2c-1.7-1.9-3.1-3.5-4.4-4.8
				c0.6-0.1,1.1-0.1,1.7-0.1h0.5c0.9,0,1.8,0.1,2.9,0.3c2.3,0.3,4.6,1,6.8,2c1.7,0.8,3.4,1.9,4.8,3.1c2.2,1.9,4.5,4.1,7.4,7.1
				l0.4,0.5c1.9,2,3.9,4.1,5.9,6.1c1.4,1.4,2.6,2.6,3.8,3.7c-1.6,0.4-3.2,0.7-4.8,0.8C376.7,662.8,374.4,662.6,372.4,662.1z
				 M159,592.6c-1.6-0.9-2.9-2-4-2.9c-1.9-1.6-3.4-3.4-4.4-5.2c-0.8-1.3-1.2-2.6-1.3-3.8v-0.5c-0.1-3.9,0.2-7.9,0.6-11.7l0.9-9.7
				c0.2-2.5,0.3-4.6,0.3-6.5c0.5,0.5,1.1,0.9,1.6,1.5c0.6,0.6,1.2,1.4,1.9,2.3c1.4,1.8,2.6,3.9,3.4,6.2c0.6,1.8,1.1,3.8,1.2,5.6
				c0.3,3.2,0.3,6.5,0.2,10.2v0.6c-0.1,2.8-0.2,5.7-0.2,8.6C158.9,589,158.9,590.8,159,592.6z M551.2,118.4c1.6,0.9,2.9,2,4,2.9
				c1.9,1.6,3.4,3.4,4.4,5.2c0.8,1.3,1.2,2.6,1.3,3.8v0.5c0.1,4-0.2,8-0.6,11.7l-0.9,9.7c-0.2,2.5-0.3,4.6-0.3,6.5
				c-0.5-0.5-1.1-0.9-1.6-1.5c-0.6-0.6-1.2-1.4-1.8-2.3c-1.4-1.8-2.6-3.9-3.4-6.2c-0.6-1.8-1.1-3.8-1.2-5.6
				c-0.3-3.2-0.3-6.6-0.2-10.2V132c0.1-2.7,0.2-5.5,0.2-8.3C551.3,122.1,551.3,120.3,551.2,118.4z M149.5,545.3l-0.8-0.4
				c-0.9-2.3-2.4-5.5-4.7-8.1c-1.5-1.8-3.4-3.4-6.3-5.2l-0.9-0.5c-0.9-3.2-2.4-6.1-4.3-8.5c-1.8-2.4-3.7-4.2-5.9-5.7l-0.9-0.6
				c-0.7-3-2-6-3.7-8.8c-1.5-2.3-3.4-4.3-5.6-6l-0.8-0.6c-0.4-2.3-0.9-4.3-1.7-6.2c-0.5-1.1-0.9-2-1.4-2.9c-1.3-2.2-3-4.3-5.2-6.3
				l-0.7-0.6c-0.3-3.3-1.2-6.3-2.6-9c-1.1-2.5-2.7-4.8-4.7-6.7l-0.8-0.7c-0.1-1.5-0.3-3-0.5-4.3c-0.3-1.7-0.7-3.4-1.4-5
				c-1-2.6-2.5-4.9-4.3-7l-0.7-0.7c0.2-3.4-0.2-6.5-1.2-9.5c-0.9-2.5-2.2-4.9-3.8-7.2L86,434c0.2-2.2,0.2-4.3-0.1-6.4
				c-0.1-1-0.4-2-0.6-3.1c-0.6-2.7-1.7-5.2-3.3-7.5l-0.5-0.8c0.2-1.5,0.3-2.9,0.3-4.3c0.1-1.8-0.1-3.5-0.4-5.1
				c-0.5-2.7-1.5-5.3-2.9-7.7l-0.5-0.8c0.8-3.3,1-6.5,0.7-9.5c-0.3-2.4-1.1-5-2.3-7.8l-0.5-0.9c1-3.2,1.4-6.4,1.2-9.5
				c-0.2-3.1-0.7-5.6-1.7-8l-0.4-0.9c0.8-2,1.2-4.1,1.5-6.2c0.2-1.1,0.3-2.2,0.3-3.2c0.1-2.7-0.3-5.5-1.3-8.1l-0.3-0.9
				c1.1-2.8,2.2-5.8,2.4-9.1c0.2-2.7-0.1-5.5-0.8-8.2l-0.3-0.9c1.6-2.9,2.7-6,3-9.1c0.3-3,0.2-5.6-0.2-8.1l-0.2-1
				c1.7-2.6,2.8-5.6,3.5-8.8c0.6-2.7,0.8-5.4,0.4-8.2l-0.2-1c1.1-1.6,2.1-3.4,3.1-5.5c0.5-1.1,0.8-2.1,1.1-3c0.8-2.6,1-5.4,0.8-8.2
				l-0.1-0.8c2.2-2.5,3.7-5.3,4.7-8.2c0.4-1.3,0.7-2.6,0.9-3.9c0.3-1.3,0.4-2.7,0.4-4.2v-1c2.2-2.3,3.9-4.9,5.2-7.9
				c1.1-2.5,1.8-5.2,2-8v-1c2.6-2.5,4.4-5,5.8-7.5c1.3-2.4,2-5.1,2.4-7.9l0.1-1c1.7-1.4,3.2-2.9,4.5-4.6c0.7-0.9,1.3-1.8,1.8-2.7
				c1.5-2.7,2.4-5.1,3-7.6l0.2-0.9c2.4-1.7,4.6-4,6.6-6.7c1.6-2.2,2.8-4.7,3.5-7.5l0.2-1c2.3-1.5,5-3.5,7.1-6.3
				c1.6-2,2.9-4.4,3.9-7.2l0.3-1c3-1.5,5.5-3.5,7.6-5.9c1.5-1.9,3.2-4.1,4.4-6.9l0.4-0.9c2-0.9,3.8-2,5.4-3.3c0.9-0.7,1.8-1.4,2.5-2
				c2-1.9,3.6-4.1,4.8-6.7l0.4-0.8c2.3-0.9,5.5-2.4,8.1-4.7c1.8-1.5,3.4-3.4,5.2-6.3l0.5-0.9c3.2-0.9,6.1-2.4,8.5-4.3
				c2.4-1.8,4.3-3.7,5.7-5.9l0.6-0.9c3.1-0.8,6-2,8.8-3.7c2.3-1.5,4.3-3.4,6-5.6l0.6-0.8c2.3-0.4,4.3-0.9,6.2-1.7
				c1.1-0.4,2-0.9,2.9-1.4c2.2-1.3,4.3-3,6.3-5.2l0.6-0.7c3.3-0.3,6.3-1.2,9-2.6c2.5-1.1,4.8-2.7,6.7-4.7l0.7-0.7
				c1.5-0.1,3-0.2,4.3-0.5c1.7-0.3,3.4-0.7,5-1.4c2.6-1,4.9-2.5,7-4.4l0.7-0.7c3.3,0.2,6.5-0.2,9.5-1.2c2.5-0.9,4.9-2.2,7.2-3.8
				l0.8-0.6c2.2,0.2,4.3,0.2,6.4-0.1c1.1-0.1,2.1-0.4,3.1-0.6c2.7-0.6,5.2-1.7,7.6-3.3l0.7-0.5c1.3,0.2,2.7,0.3,4,0.3h0.4
				c1.7,0.1,3.5-0.1,5.1-0.4c2.7-0.5,5.3-1.5,7.7-2.9l0.8-0.5c3.3,0.8,6.5,1,9.5,0.7c2.4-0.3,4.9-1.1,7.8-2.3l0.9-0.5
				c3.2,1,6.4,1.4,9.5,1.2c3.1-0.2,5.6-0.7,8-1.7l0.9-0.4c2,0.8,4.1,1.3,6.2,1.5c1.2,0.2,2.2,0.3,3.2,0.3c2.7,0.1,5.5-0.4,8.1-1.3
				l0.9-0.3c2.7,1.1,5.8,2.2,9.1,2.4c2.7,0.2,5.5-0.1,8.1-0.8l1-0.3c2.9,1.6,6,2.6,9.1,3c3,0.3,5.6,0.2,8.1-0.2l1-0.2
				c2.6,1.6,5.6,2.8,8.8,3.5c2.7,0.6,5.4,0.8,8.2,0.4l1-0.2c1.6,1.1,3.4,2.1,5.5,3.1c1.1,0.5,2,0.8,3,1.1c2,0.6,4.1,0.9,6.2,0.9
				c0.6,0,1.3,0,2-0.1l0.8-0.1c2.5,2.2,5.3,3.7,8.2,4.7c1.3,0.4,2.6,0.7,3.8,0.9c1.4,0.3,2.8,0.4,4.2,0.4h1c2.3,2.2,5,3.9,7.9,5.2
				c2.5,1.1,5.2,1.8,8,2h1c2.5,2.6,5,4.4,7.5,5.8c2.4,1.2,5.1,2,7.9,2.4l1,0.1c1.4,1.7,2.9,3.2,4.6,4.5c0.9,0.7,1.8,1.3,2.7,1.8
				c2.7,1.5,5.1,2.4,7.6,2.9l0.9,0.2c1.7,2.4,3.9,4.6,6.7,6.6c2.2,1.6,4.7,2.8,7.4,3.5l1,0.2c1.5,2.3,3.5,5,6.3,7.1
				c2,1.6,4.4,2.9,7.2,3.9l1,0.3c1.5,3,3.5,5.5,5.9,7.6c1.8,1.5,4,3.2,6.9,4.4l0.9,0.4c0.9,2,2,3.8,3.3,5.4c0.7,0.9,1.3,1.7,2,2.5
				c1.9,2,4.2,3.6,6.7,4.8l0.8,0.4c0.9,2.3,2.4,5.5,4.7,8.1c1.5,1.8,3.5,3.4,6.3,5.2l0.9,0.5c0.9,3.2,2.4,6.1,4.3,8.5
				c1.8,2.4,3.7,4.2,5.9,5.7l0.9,0.5c0.7,3,2,6,3.7,8.8c1.5,2.3,3.4,4.3,5.6,6l0.8,0.6c0.4,2.3,0.9,4.3,1.7,6.2
				c0.4,1.1,0.9,2,1.4,2.9c1.3,2.2,3,4.3,5.1,6.3l0.7,0.6c0.3,3.3,1.2,6.3,2.6,9c1.1,2.5,2.7,4.8,4.7,6.7l0.7,0.7
				c0.1,1.5,0.2,3,0.5,4.3c0.3,1.7,0.7,3.4,1.4,5c1,2.6,2.5,4.9,4.3,7l0.7,0.7c-0.2,3.4,0.2,6.5,1.2,9.5c0.9,2.5,2.2,4.9,3.8,7.2
				l0.6,0.8c-0.2,2.2-0.2,4.3,0.1,6.4c0.1,1,0.4,2,0.6,3.1c0.6,2.7,1.7,5.2,3.3,7.6l0.5,0.7c-0.2,1.5-0.3,2.9-0.3,4.3
				c-0.1,1.8,0.1,3.5,0.4,5.1c0.5,2.7,1.4,5.3,2.9,7.7l0.5,0.8c-0.8,3.3-1,6.5-0.7,9.5c0.3,2.4,1.1,4.9,2.3,7.8l0.5,0.9
				c-1,3.2-1.4,6.4-1.2,9.5s0.7,5.6,1.7,8l0.4,0.9c-0.8,2-1.3,4.1-1.5,6.2c-0.2,1.1-0.3,2.2-0.3,3.2c-0.1,2.8,0.4,5.5,1.3,8.1
				l0.3,0.9c-1.1,2.7-2.2,5.8-2.4,9.1c-0.2,2.7,0.1,5.5,0.8,8.2l0.3,1c-1.6,2.9-2.6,6-3,9.1c-0.3,3-0.2,5.6,0.2,8.1l0.2,1
				c-1.6,2.6-2.8,5.6-3.5,8.8c-0.6,2.7-0.7,5.4-0.4,8.2l0.2,1c-1.1,1.6-2.1,3.4-3.1,5.5c-0.4,1-0.8,2-1.1,3c-0.8,2.7-1,5.4-0.8,8.2
				l0.1,0.8c-2.2,2.5-3.7,5.3-4.7,8.2c-0.4,1.2-0.7,2.6-1,3.9c-0.3,1.4-0.4,2.8-0.4,4.2v1c-2.2,2.3-3.9,4.9-5.2,7.9
				c-1.1,2.5-1.8,5.2-2,8v1c-2.5,2.5-4.4,5-5.8,7.5c-1.3,2.4-2,5.1-2.4,7.8l-0.1,1c-1.7,1.4-3.2,2.9-4.5,4.6
				c-0.7,0.9-1.3,1.8-1.8,2.7c-1.5,2.7-2.4,5.1-2.9,7.6l-0.2,0.9c-2.4,1.7-4.6,3.9-6.6,6.7c-1.6,2.2-2.8,4.7-3.5,7.4l-0.2,1
				c-2.3,1.5-5,3.5-7.1,6.3c-1.6,2-2.9,4.4-3.9,7.2l-0.3,1c-3,1.5-5.5,3.5-7.6,5.9c-1.5,1.9-3.2,4.1-4.4,6.9l-0.4,0.9
				c-2,0.9-3.8,2-5.4,3.3c-1,0.7-1.8,1.4-2.5,2c-2,1.9-3.6,4.1-4.8,6.7l-0.4,0.8c-2.3,0.9-5.5,2.4-8.1,4.7c-1.8,1.5-3.4,3.5-5.2,6.3
				l-0.5,0.9c-3.2,0.9-6.1,2.4-8.5,4.3c-2.4,1.8-4.2,3.7-5.7,5.9l-0.5,0.9c-3.1,0.8-6,2-8.8,3.7c-2.3,1.5-4.4,3.4-6,5.6l-0.6,0.8
				c-2.3,0.4-4.3,0.9-6.2,1.7c-1.1,0.4-2,0.9-2.9,1.4c-2.2,1.3-4.3,3-6.3,5.1l-0.6,0.7c-3.3,0.3-6.3,1.2-9,2.6
				c-2.5,1.1-4.8,2.7-6.7,4.7l-0.7,0.7c-1.5,0.1-3,0.3-4.3,0.5c-1.7,0.3-3.4,0.7-5,1.3c-2.6,1-4.9,2.5-7,4.3l-0.7,0.7
				c-3.3-0.2-6.5,0.2-9.5,1.2c-2.5,0.9-4.9,2.1-7.2,3.8l-0.8,0.6c-2.1-0.2-4.3-0.2-6.4,0.1c-1.1,0.2-2.2,0.4-3.1,0.6
				c-2.7,0.6-5.2,1.7-7.5,3.3L416,629c-1.4-0.2-2.7-0.3-4-0.3h-0.3c-1.7,0-3.5,0.1-5.1,0.4c-2.7,0.5-5.3,1.5-7.7,2.9l-0.8,0.5
				c-3.3-0.8-6.5-1-9.5-0.6c-2.4,0.3-4.9,1-7.8,2.3l-0.9,0.5c-3.2-1-6.4-1.4-9.5-1.2s-5.6,0.7-8,1.7l-0.9,0.4
				c-2.1-0.8-4.1-1.3-6.2-1.5c-1.2-0.2-2.2-0.3-3.2-0.3c-0.2,0-0.4,0-0.7,0c-2.5,0-5,0.4-7.5,1.3l-0.9,0.3c-2.7-1.1-5.8-2.2-9.1-2.4
				c-2.7-0.2-5.5,0.1-8.1,0.8l-1,0.3c-2.9-1.6-6-2.7-9.1-3c-3-0.3-5.6-0.3-8.1,0.2l-1,0.2c-2.6-1.7-5.6-2.8-8.8-3.5
				c-2.7-0.6-5.5-0.8-8.2-0.4l-1,0.2c-1.6-1.1-3.4-2.1-5.5-3.1c-1.1-0.5-2-0.8-3-1.1c-2-0.6-4.1-0.9-6.2-0.9c-0.6,0-1.3,0-2,0.1
				l-0.8,0.1c-2.5-2.1-5.3-3.7-8.2-4.7c-1.2-0.4-2.6-0.7-3.9-0.9c-1.3-0.3-2.7-0.4-4.2-0.4h-1c-2.3-2.2-4.9-3.9-7.9-5.2
				c-2.5-1.1-5.2-1.8-8-2h-1c-2.5-2.6-5-4.4-7.5-5.8c-2.4-1.3-5.1-2-7.9-2.4l-1-0.1c-1.4-1.7-2.9-3.2-4.6-4.5
				c-0.9-0.7-1.8-1.3-2.7-1.8c-2.7-1.5-5.1-2.4-7.6-2.9l-0.9-0.2c-1.7-2.4-3.9-4.6-6.7-6.6c-2.2-1.6-4.7-2.8-7.5-3.5l-1-0.2
				c-1.5-2.3-3.5-5-6.3-7.1c-2-1.6-4.4-2.9-7.2-3.9l-1-0.3c-1.5-3-3.5-5.5-5.9-7.6c-1.9-1.5-4.1-3.2-6.9-4.4l-1-0.4
				c-0.9-2-2-3.8-3.3-5.4c-0.7-1-1.4-1.8-2-2.5C154.3,548.2,152.1,546.6,149.5,545.3z M659.8,341.9l-0.3,0.3
				c-2.7,2.8-5.8,5.4-8.7,7.9l-7.5,6.3c-2,1.7-3.5,3.1-4.8,4.4c-0.1-0.7-0.1-1.4-0.1-2.1c0-0.9,0.1-1.9,0.3-2.9c0.3-2.3,1-4.6,2-6.8
				c0.8-1.7,1.9-3.4,3.1-4.8c1.9-2.2,4.2-4.6,7.1-7.4c2.2-2,4.4-4.1,6.6-6.3c1.4-1.4,2.6-2.6,3.7-3.8c0.4,1.6,0.7,3.2,0.8,4.8
				c0.2,2.4,0,4.8-0.5,6.8C661.3,339.9,660.4,341.1,659.8,341.9z M647.6,287.8l-1.8,2.3c-1.3,1.6-2.5,3.2-3.7,4.7l-0.4,0.5
				c-2.7,3.3-5.4,6.5-7.5,9.8c-0.2-0.7-0.4-1.4-0.5-2.1c-0.3-1.4-0.4-3-0.3-4.9c0-1.7,0.3-3.4,0.7-5c0.5-1.8,1.2-3.7,2.1-5.3
				c0.6-1,1.2-2.1,2-3.3l0.9-1.4c0.7-1.1,1.4-2.2,2.3-3.4c1-1.4,1.9-2.8,2.9-4.2l0.6-0.9c1.6-2.2,3.3-4.8,5-7.5
				c0.7,1.5,1.3,3,1.7,4.6c0.4,1.3,0.6,2.6,0.8,3.9c0.1,1.1,0.1,2.1,0.1,2.8c-0.2,1.8-0.6,3.3-1.3,4.4
				C650.1,284.4,649,286,647.6,287.8z M51.5,329.1c1.4-1.2,3-2.3,4.6-3.5c1.5-1,3.2-2.1,5-3.2l2.1-1.3c4.1-2.6,8-5,11.4-7.7
				c0,0.7,0,1.5-0.1,2.2c-0.4,3.1-1.7,6.4-3.6,9.3c-1.3,1.9-2.4,3.3-3.6,4.4c-2.4,2.3-5.4,4.5-8,6.4l-1.2,0.8
				c-2.1,1.5-4.3,3-6.3,4.6c-1.2,0.9-2.6,2-4.1,3.3c-0.3-1.7-0.4-3.3-0.3-4.9c0.2-2.5,0.7-4.8,1.5-6.7
				C49.6,331.2,50.5,329.9,51.5,329.1z M55.1,345.1c2.3-1.7,4.7-3.6,7.2-5.3c4-2.8,7.3-5.2,10.3-7.9c0,0.7,0,1.4,0,2.2
				c-0.2,2.9-1.2,6.1-3,9.5c-0.9,1.7-2.1,3.3-3.3,4.6c-0.8,0.8-1.7,1.7-2.7,2.7c-1.2,1.1-2.6,2.3-4.4,3.7c-1.2,1-2.4,2-3.6,3
				l-1.1,0.9c-2,1.7-4.4,3.7-6.7,6c-0.3-1.6-0.5-3.3-0.6-4.9c0-1.3,0-2.7,0.2-3.9c0.2-1,0.5-2,0.8-2.8c0.6-1.7,1.5-3,2.4-3.9
				C52.1,347.6,53.8,346.2,55.1,345.1z M48.5,372.8c0.4-1.7,1.2-2.9,1.8-3.6l0.3-0.3c2.8-2.9,5.9-5.6,8.7-7.9
				c1.9-1.5,3.7-3.1,5.4-4.5l2-1.7c1.9-1.6,3.5-3.1,4.8-4.4c0.1,0.7,0.1,1.4,0.1,2.1c0,0.9-0.1,1.9-0.3,2.9c-0.3,2.3-1,4.6-2,6.8
				c-0.8,1.7-1.9,3.4-3.1,4.8c-1.9,2.2-4.1,4.5-7.1,7.4l-0.6,0.5c-2,1.9-4.1,3.8-6.1,5.8c-1.1,1-2.4,2.4-3.7,3.8
				c-0.4-1.6-0.7-3.2-0.8-4.8C47.8,377.2,48,374.8,48.5,372.8z M50.4,392.9c0.4-1.7,1-3.2,1.8-4.2c1.2-1.5,2.8-3.1,4.1-4.4l1-0.9
				c1.9-1.8,3.7-3.6,5.5-5.3c3.6-3.3,6.5-6.2,9-9.2c0.1,0.7,0.2,1.5,0.2,2.2c0.2,3.2-0.3,6.6-1.7,9.8c-0.7,1.6-1.6,3.3-2.8,5
				c-2.3,3.2-5.3,6.5-8.6,9.9l-1.7,1.8c-2.2,2.4-4.2,4.6-5.9,6.8c-0.6-1.7-1-3.3-1.2-4.7C49.9,397.3,49.9,394.9,50.4,392.9z
				 M62.6,423.2l5.5-7l0.4-0.5c2.8-3.3,5.4-6.5,7.5-9.8c0.2,0.7,0.4,1.4,0.5,2.1c0.3,1.4,0.3,3,0.3,4.9c0,1.7-0.3,3.4-0.7,5
				c-0.5,1.8-1.2,3.7-2.1,5.3c-0.6,1.1-1.2,2.1-2,3.3l-0.7,1.1c-0.8,1.2-1.6,2.4-2.4,3.6l-0.7,1.1c-0.9,1.3-1.8,2.6-2.8,4
				c-1.6,2.3-3.4,4.9-5,7.5c-0.7-1.5-1.3-3-1.7-4.6c-0.4-1.2-0.6-2.5-0.8-3.9c-0.1-1.1-0.1-2-0.1-2.8c0.2-1.8,0.6-3.3,1.3-4.4
				C60.1,426.5,61.2,424.9,62.6,423.2z M658.7,381.9c-1.4,1.2-3,2.3-4.6,3.5c-1.5,1-3.1,2-5,3.2l-2,1.3c-4.1,2.6-8.1,5-11.4,7.8
				c0-0.7,0-1.5,0.1-2.2c0.4-3.1,1.6-6.3,3.6-9.3c1.3-2,2.4-3.3,3.6-4.4c2.2-2.1,4.8-4.1,8-6.4l1-0.7c2.2-1.5,4.4-3.1,6.4-4.7
				c1.6-1.2,2.9-2.3,4.1-3.3c0.3,1.7,0.4,3.3,0.3,4.9c-0.2,2.5-0.7,4.8-1.5,6.7C660.5,379.8,659.7,381.1,658.7,381.9z M655.1,365.9
				c-2.2,1.7-4.7,3.6-7.2,5.3c-3.8,2.7-7.3,5.2-10.3,7.9c0-0.7,0-1.4,0-2.2c0.2-2.9,1.2-6.1,3-9.5c0.9-1.7,2.1-3.3,3.3-4.6
				c0.8-0.9,1.7-1.7,2.7-2.7c1.5-1.4,3.1-2.7,4.3-3.7l4.7-4c2.2-1.8,4.5-3.8,6.7-6c0.3,1.7,0.5,3.3,0.6,4.9c0,1.3,0,2.7-0.2,3.9
				c-0.2,1-0.5,1.9-0.8,2.8c-0.6,1.7-1.4,3-2.4,3.9C658.4,363.2,657,364.4,655.1,365.9z M659.8,318.1c-0.4,1.7-1,3.2-1.8,4.2
				c-1.2,1.5-2.6,3-4.1,4.4l-6.5,6.2c-3.6,3.3-6.4,6.2-9,9.1c-0.1-0.7-0.2-1.4-0.2-2.2c-0.2-3.2,0.3-6.6,1.7-9.8
				c0.7-1.6,1.6-3.3,2.8-5c2.3-3.3,5.4-6.6,8.7-10l1.6-1.7c2.2-2.3,4.2-4.6,5.9-6.8c0.6,1.7,1,3.3,1.2,4.7
				C660.3,313.7,660.3,316.1,659.8,318.1z M656.7,298.2c-0.3,1.8-0.8,3.2-1.6,4.3c-2.3,3.1-4.8,6-7.5,8.9l-1.8,1.9
				c-3.3,3.5-6.4,6.8-9,10.3c-0.2-0.7-0.3-1.4-0.4-2.1c-0.4-3,0-6.3,1.2-9.9c0.6-1.8,1.4-3.6,2.3-5.1c1.6-2.6,3.6-5.1,6.1-8.2
				c1.8-2.1,3.5-4.3,5.7-7.2c1.2-1.6,2.2-3,3.1-4.2c0.7,1.6,1.2,3.1,1.5,4.7C657,293.4,657.1,295.7,656.7,298.2z M646,263.4
				l-0.2,0.4c-2,3.5-4.3,6.9-6.4,9.9c-1.4,2-2.8,3.9-4.1,5.8l-2.1,3.1c-1,1.5-2,3-2.8,4.5c-0.2-0.7-0.4-1.3-0.6-2
				c-0.2-0.9-0.4-1.9-0.6-2.9c-0.3-2.3-0.2-4.7,0.3-7.1c0.3-1.7,0.9-3.6,1.8-5.5c1.3-2.9,3.1-6,4.9-8.9l0.5-0.8
				c1.4-2.3,2.9-4.7,4.3-7.1c0.8-1.4,1.7-2.9,2.5-4.6c0.9,1.5,1.6,3,2,4.4c0.8,2.3,1.2,4.7,1.2,6.8C646.7,261,646.5,262.4,646,263.4
				z M639.1,245c-0.8,1.7-1.7,3.4-2.7,5.4c-1,1.7-2,3.5-3.1,5.1c-0.5,0.9-1.1,1.7-1.6,2.6c-2.5,4-4.7,7.6-6.4,11.2
				c-0.3-0.6-0.6-1.3-0.8-2c-1-2.9-1.3-6.4-0.8-10c0.2-1.9,0.6-3.8,1.3-5.5c1.2-3.2,3-6.6,4.9-10.2c0.7-1.3,1.4-2.5,2-3.8
				c1.2-2.4,2.6-5.2,3.9-8.1c0.9,1.4,1.8,2.8,2.4,4.3c0.9,1.9,1.4,4.1,1.6,6.6C639.9,242.3,639.7,243.8,639.1,245z M631.3,226.6
				c-1.4,3.7-3.2,7.3-5,10.6c-0.8,1.5-1.6,3-2.3,4.4c-1.9,3.5-3.6,6.8-4.9,10.1c-0.3-0.6-0.6-1.3-0.9-2c-0.6-1.4-1-3-1.2-4.8
				c-0.3-1.6-0.4-3.3-0.3-5.1c0.1-1.9,0.4-3.9,1-5.6c1-3,2.3-6.1,3.7-9.4l0.6-1.4c1-2.3,2.1-4.8,3.1-7.2c0.7-1.8,1.4-3.4,2-4.9
				c1,1.3,1.9,2.7,2.6,4.1c1.1,2.2,1.9,4.4,2.2,6.4C631.9,223.8,631.7,225.4,631.3,226.6z M622.2,208.7c-0.5,1.8-1.3,3.8-2.1,5.7
				l-3.6,8.3c-1.7,3.8-3.5,7.9-4.8,11.9c-0.4-0.6-0.7-1.3-1-1.9c-1.5-2.8-2.2-6.2-2.2-9.7c0-1.7,0.2-3.6,0.6-5.7
				c0.2-1.1,0.5-2.3,1-3.7c0.5-1.5,1-3.2,1.8-5.3l0.8-2.2c0.4-1.2,0.9-2.4,1.3-3.6c1.1-3,2.1-5.8,2.8-8.6c1.2,1.4,2.2,2.6,2.9,3.9
				c0.7,1.2,1.3,2.4,1.7,3.6c0.4,1,0.6,1.9,0.8,2.8C622.6,206,622.6,207.5,622.2,208.7z M612.2,191.3l-0.1,0.4
				c-0.9,3.8-2.1,7.4-3.5,11.1c-0.9,2.3-1.7,4.5-2.5,6.7l-0.9,2.5c-0.8,2.4-1.4,4.4-1.8,6.2c-0.4-0.6-0.8-1.2-1.2-1.8
				c-0.5-0.8-0.9-1.6-1.2-2.6c-0.8-1.9-1.3-4.2-1.5-7c-0.2-1.9-0.1-3.9,0.2-5.6c0.5-3,1.4-6.2,2.5-10c0.9-2.8,1.7-5.7,2.5-8.8
				c0.5-1.9,0.9-3.5,1.3-5.1c1.2,1.2,2.3,2.4,3.2,3.8c1.7,2.2,2.5,4.6,2.9,6.2C612.3,188.7,612.4,190.2,612.2,191.3z M600.8,175.2
				c-0.3,1.8-0.7,3.7-1.3,5.9c-0.8,2.9-1.6,5.8-2.4,8.6l-0.5,1.8c-1.1,3.7-2.2,7.2-2.8,10.7c-0.5-0.6-0.9-1.1-1.2-1.7
				c-1.8-2.9-3-6.1-3.5-9.4c-0.3-1.9-0.3-3.9-0.1-5.7c0.6-4.8,1.7-10,3-15.4c0.6-2.8,1.3-5.8,1.8-8.9c1.2,1.1,2.3,2.3,3.3,3.6
				c1.5,1.9,2.7,4,3.4,6C600.9,172.3,601,173.9,600.8,175.2z M588.4,159.5c-0.3,3.5-1.1,7.1-1.9,10.6l-0.2,0.8
				c-1.4,6.2-2.5,11-3.2,15.9c-0.5-0.6-1-1.2-1.4-1.7c-2-2.5-3.4-5.7-4.1-9.1c-0.4-2-0.5-4-0.5-5.7c0.1-3.2,0.6-6.8,1.1-10.1
				c0.1-0.7,0.2-1.5,0.4-2.2c0.4-2.3,0.8-4.6,1.1-6.9c0.2-1.9,0.4-3.6,0.5-5.2c1.5,1.1,2.7,2.2,3.6,3.3c1.6,1.9,2.9,3.9,3.7,5.8
				C588.3,156.7,588.6,158.2,588.4,159.5z M574.6,150.7c-0.4,3.1-0.9,6.2-1.3,8.8c-0.8,4.6-1.5,8.8-1.6,12.8c-0.5-0.5-1.1-1-1.5-1.6
				c-1.9-2.1-3.4-5-4.6-8.9c-0.5-1.9-0.9-3.8-0.9-5.6c0-1.2,0-2.5,0-3.8c0.1-2,0.3-4,0.4-5.7l0.5-6.1c0.2-2.7,0.5-5.8,0.5-9
				c1.4,0.9,2.7,2,3.8,3.1c1,0.9,1.8,1.9,2.6,2.9c0.6,0.9,1.1,1.7,1.4,2.5c0.7,1.6,1.1,3.1,1.1,4.4
				C575,146.4,574.8,148.4,574.6,150.7z M546,145.7c-0.5-0.4-1.1-0.8-1.7-1.3c-2.4-2.1-4.4-4.9-5.7-8.1c-0.7-1.7-1.3-3.6-1.6-5.5
				c-0.7-3.9-0.8-8.4-0.9-13.2l-0.1-2.5c-0.1-2.8-0.3-5.8-0.7-8.9c1.5,0.7,2.9,1.6,4.2,2.5c1.9,1.5,3.6,3.2,4.7,5
				c1,1.5,1.5,3,1.7,4.2c0.1,1.6,0.3,3.7,0.3,6l-0.2,9C545.7,136.7,545.6,141.2,546,145.7z M530,132.4c-2.3-1.8-4.4-4.4-6.2-7.8
				c-0.9-1.7-1.5-3.5-2-5.3c-0.6-2.5-0.9-5.2-1.2-8.1l-0.3-2.6c-0.3-2.8-0.6-5.6-1-8.5c-0.2-1.6-0.4-3.3-0.8-5.2
				c1.5,0.6,3,1.4,4.3,2.3c2.4,1.6,4,3,5.1,4.6c1,1.5,1.7,2.9,1.9,4.2c0.6,3.9,0.8,7.9,1,11.6c0,1.1,0.1,2.2,0.1,3.3
				c0.1,4.6,0.3,8.9,0.9,12.9C531.1,133.3,530.5,132.9,530,132.4z M515,121.4c-2.9-2.1-5.2-4.5-6.8-7.3c-1-1.7-1.8-3.5-2.3-5.3
				c-0.4-1.3-0.7-2.5-1-3.7c-0.5-1.9-0.8-4-1.1-5.5l-1-6.1c-0.5-3-1-6-1.8-8.9c1.5,0.5,3,1.2,4.5,2c1.2,0.7,2.3,1.4,3.3,2.3
				c0.8,0.7,1.5,1.3,2.1,2c1.2,1.5,2,2.7,2.2,3.9c0.4,1.8,0.7,3.7,1,6l0.3,2.4c0.3,2.2,0.5,4.4,0.7,6.6l0.2,1.9
				c0.4,3.8,0.8,7.4,1.5,10.9C516.2,122.2,515.6,121.8,515,121.4z M499.8,105.7l0.1,0.5c0.4,2.3,0.9,4.3,1.5,6.2
				c-0.7-0.3-1.4-0.6-2-1c-0.8-0.5-1.6-1-2.4-1.6c-1.8-1.5-3.4-3.2-4.8-5.3c-1.2-1.7-2.1-3.4-2.7-5c-1.1-2.8-1.9-6-2.8-9.8
				c-0.8-3.5-1.5-6.4-2.2-8.9c-0.5-1.9-1-3.5-1.5-5c1.6,0.4,3.2,1,4.6,1.6c2.6,1.2,4.4,2.8,5.6,4c1.1,1.1,1.9,2.3,2.3,3.4l0.1,0.4
				c1,3.2,1.8,6.8,2.5,11.4l1.2,7.1C499.6,104.3,499.7,105,499.8,105.7z M485.1,103.4c-0.7-0.2-1.3-0.5-2-0.9
				c-2.7-1.4-5.4-3.6-7.7-6.4c-1.2-1.5-2.2-3.2-3-4.9c-1-2.1-1.8-4.5-2.6-7l-2.5-7.8c-0.8-2.6-1.8-5.6-2.9-8.5
				c1.6,0.3,3.2,0.8,4.7,1.4c2.5,1,4.5,2.2,5.9,3.5c1.3,1.2,2.2,2.5,2.7,3.7c0.6,1.6,1.2,3.5,1.8,5.8l2.2,8.6
				C482.8,95.5,483.8,99.6,485.1,103.4z M466.3,94.6c-3.1-1.3-5.8-3.3-8.1-5.8c-1.2-1.4-2.3-3-3.3-4.7c-1.6-2.8-2.9-6.1-4.1-9.3
				l-0.2-0.7c-1-2.6-2-5.3-3.1-7.9c-0.6-1.6-1.3-3.1-2.1-4.8c1.6,0.2,3.2,0.6,4.8,1.1c2.3,0.8,4.4,1.9,6.1,3.2
				c1.4,1.1,2.4,2.3,2.9,3.4c1.6,3.7,2.8,7.5,3.9,11.1l0.8,2.7c1.4,4.5,2.7,8.7,4.4,12.7C467.7,95.2,467,94.9,466.3,94.6z
				 M444.9,73.7c0.4,1,0.8,2,1.1,3c1.6,4.2,3.1,8.2,5,11.9c-0.7-0.1-1.4-0.3-2.1-0.6c-3-1-5.9-2.9-8.4-5.4c-1.4-1.3-2.6-2.8-3.6-4.3
				c-0.6-1-1.2-2.1-1.9-3.3c-0.9-1.7-1.8-3.5-2.5-5.1c-0.3-0.7-0.6-1.4-0.9-2.1c-0.5-1.2-1.1-2.4-1.6-3.6c-1.2-2.6-2.6-5.3-4.1-8
				c1.7,0.1,3.4,0.3,4.9,0.7c1.3,0.3,2.5,0.8,3.7,1.3c0.9,0.4,1.8,0.9,2.5,1.4c1.5,1,2.6,2.2,3.2,3.3c0.8,1.6,1.7,3.4,2.6,5.4
				C443.5,70,444.2,71.9,444.9,73.7z M428.5,72.8c0.3,0.7,0.6,1.3,0.9,2l1.1,2.4c1.1,2.2,2,4.1,3,5.7c-0.7-0.1-1.4-0.3-2.1-0.5
				c-0.9-0.3-1.8-0.6-2.7-1c-2.5-1.2-4.4-2.4-6.1-3.8c-1.5-1.3-2.8-2.7-3.9-4.2c-1.6-2.2-3-4.7-4.5-7.4l-1.4-2.5
				c-1.2-2.3-2.5-4.6-3.9-6.9c-1-1.7-1.9-3.2-2.7-4.5c1.7,0,3.3,0.2,4.9,0.4c2.7,0.5,4.8,1.3,6.4,2.2c1.3,0.8,2.4,1.8,3.1,2.8
				L421,58c2,3.4,3.8,7,5.4,10.4C427.1,69.8,427.8,71.3,428.5,72.8z M412.3,73.2c1.1,1.9,2.1,3.6,3.2,5.2c-0.7-0.1-1.4-0.2-2.1-0.4
				c-3.4-0.7-6.4-2.1-9.1-4.1c-1.5-1.2-3-2.5-4.1-4c-2.6-3.1-5-6.9-7.5-11l-1.3-2c-1.6-2.5-3.2-5-5-7.4c1.5-0.1,3.1-0.1,4.9,0.2
				c2.5,0.3,4.7,1,6.6,1.9c1.7,0.9,2.9,1.8,3.5,2.8c1,1.5,2,3.1,3.2,5.1c1.5,2.7,2.9,5.3,4.4,7.9C410.1,69.2,411.2,71.2,412.3,73.2z
				 M389.4,63.4c2.6,4.2,5.1,8.2,7.8,11.6c-0.8,0-1.5-0.1-2.2-0.1c-3.2-0.4-6.4-1.7-9.3-3.6c-1.9-1.3-3.3-2.4-4.4-3.6
				c-2.1-2.2-4.1-4.8-6.4-8l-0.8-1.1c-1.5-2.1-3.1-4.3-4.7-6.3c-1.2-1.5-2.3-2.9-3.3-4.1c1.4-0.2,2.8-0.3,4.1-0.3c0.3,0,0.6,0,0.8,0
				c2.5,0.2,4.8,0.7,6.7,1.5c1.6,0.7,2.9,1.6,3.7,2.6c1.2,1.4,2.3,3,3.5,4.6c1,1.5,2,3,3.2,5L389.4,63.4z M378.7,72.9
				c-0.7,0-1.4,0-2.2,0c-2.9-0.2-6.1-1.2-9.5-3c-1.7-0.9-3.3-2.1-4.6-3.3c-0.8-0.8-1.7-1.7-2.7-2.7c-1.1-1.2-2.2-2.5-3.7-4.3l-4-4.7
				c-1.7-2-3.8-4.4-6-6.7c1.6-0.3,3.3-0.5,4.9-0.6c1.3,0,2.7,0,3.9,0.2c1,0.2,2,0.5,2.8,0.8c1.7,0.6,3,1.4,3.9,2.4
				c1.2,1.3,2.4,2.8,3.9,4.6c1.8,2.4,3.6,4.7,5.3,7.2C373.5,66.5,376,69.9,378.7,72.9z M355.9,67.2c1.6,1.9,3,3.4,4.4,4.8
				c-0.7,0.1-1.4,0.1-2.1,0.1c-0.9,0-1.8-0.1-2.9-0.3c-2.3-0.3-4.6-1-6.8-2c-1.7-0.8-3.4-1.9-4.8-3.1c-2.2-1.9-4.6-4.2-7.4-7.1
				l-0.6-0.7c-1.8-2-3.7-4-5.7-6c-1.4-1.4-2.6-2.6-3.8-3.7c1.6-0.4,3.2-0.7,4.8-0.8c2.5-0.2,4.9,0,6.8,0.5c1.3,0.3,2.6,1,3.6,1.8
				l0.3,0.3c2.9,2.8,5.6,5.9,7.9,8.7l4.5,5.4C354.8,65.8,355.3,66.5,355.9,67.2z M341.7,72.2c-0.7,0.1-1.5,0.2-2.2,0.2
				c-3.2,0.2-6.5-0.3-9.8-1.7c-1.6-0.7-3.3-1.6-5-2.8c-3.2-2.3-6.5-5.3-9.9-8.5l-1.9-1.7c-2.3-2.2-4.6-4.2-6.8-5.9
				c1.7-0.6,3.3-1,4.7-1.1c2.4-0.3,4.8-0.2,6.9,0.2c1.7,0.4,3.2,1,4.2,1.8c1.5,1.2,3,2.7,4.4,4.1l6.2,6.5
				C335.8,66.7,338.7,69.6,341.7,72.2z M323.1,73.7c-0.7,0.2-1.4,0.3-2.1,0.4c-3,0.4-6.4,0-9.9-1.2c-1.8-0.6-3.6-1.4-5.1-2.3
				c-2.6-1.6-5.1-3.6-8.2-6.1c-2.5-2.2-5-4.1-7.2-5.7c-1.5-1.2-2.9-2.2-4.2-3.1c1.6-0.7,3.1-1.2,4.7-1.5c2-0.5,4.4-0.6,6.8-0.3
				c1.8,0.3,3.2,0.8,4.3,1.6c3.2,2.4,6.1,4.8,8.9,7.5l1.8,1.7C316.3,68,319.6,71.1,323.1,73.7z M294.9,68.9c3.3,2.8,6.5,5.4,9.8,7.5
				c-0.7,0.2-1.4,0.4-2.1,0.5c-1.5,0.3-3,0.3-4.9,0.3c-1.7,0-3.4-0.3-5-0.7c-1.9-0.5-3.7-1.2-5.3-2.1c-1-0.5-2.1-1.2-3.3-2
				c-0.5-0.3-1-0.7-1.5-1c-1.1-0.7-2.1-1.4-3.2-2.1l-5-3.5c-2.3-1.6-4.9-3.4-7.5-5c1.5-0.7,3-1.3,4.6-1.7c1.3-0.4,2.6-0.6,3.9-0.8
				c1.1-0.1,2.1-0.1,2.8-0.1c1.8,0.2,3.3,0.6,4.4,1.3c1.5,1,3.1,2.1,5,3.5c2.4,1.9,4.7,3.7,7,5.5L294.9,68.9z M257.6,78.9
				c4.1,2.6,7.6,4.7,11.2,6.4c-0.7,0.3-1.4,0.6-2,0.8c-2.9,1-6.3,1.3-10,0.8c-1.9-0.2-3.8-0.6-5.5-1.3c-3.2-1.2-6.6-3-10.2-4.9
				c-1.3-0.7-2.6-1.4-3.9-2.1c-2.5-1.3-5.2-2.7-8.1-3.9c1.4-0.9,2.8-1.8,4.3-2.4c1.9-0.9,4.1-1.4,6.6-1.6c1.8-0.1,3.3,0.2,4.5,0.7
				c1.6,0.7,3.3,1.6,5.4,2.7c1.7,1,3.4,2,5,3C255.9,77.8,256.8,78.3,257.6,78.9z M251.3,91.5c-0.6,0.3-1.3,0.6-2,0.9
				c-1.4,0.6-3,1-4.8,1.2c-1.6,0.3-3.3,0.4-5.1,0.3c-1.9-0.1-3.8-0.4-5.6-1c-3-1-6.2-2.3-9.5-3.8l-0.8-0.4c-2.5-1.1-5-2.2-7.6-3.3
				c-1.8-0.8-3.4-1.4-4.9-1.9c1.3-1,2.7-1.9,4.1-2.6c2.2-1.1,4.5-1.9,6.4-2.2c1.8-0.2,3.4,0,4.6,0.5c3.7,1.5,7.4,3.3,10.6,5
				c1.5,0.8,3,1.6,4.5,2.4C244.7,88.5,248,90.3,251.3,91.5z M214,90.4c2.4,1,4.7,2.1,7,3.1l1.2,0.5c3.8,1.7,7.9,3.5,11.9,4.8
				c-0.6,0.4-1.3,0.7-1.9,1c-2.9,1.5-6.2,2.2-9.7,2.2h-0.2c-1.6,0-3.4-0.2-5.5-0.6c-1.1-0.2-2.2-0.5-3.7-1s-3.2-1-5.3-1.8l-5.8-2.2
				c-3-1.1-5.8-2.1-8.6-2.8c1.3-1.2,2.6-2.2,3.9-2.9c1.1-0.7,2.4-1.2,3.6-1.7c1-0.4,1.9-0.6,2.8-0.8c1.7-0.3,3.3-0.3,4.5,0
				c1.8,0.5,3.7,1.3,5.5,2L214,90.4z M202.4,102l6.7,2.5l2.5,0.9c2.3,0.8,4.3,1.4,6.2,1.9c-0.6,0.5-1.2,0.8-1.8,1.2
				c-0.8,0.5-1.7,0.9-2.6,1.2c-1.9,0.8-4.2,1.3-7,1.5c-1.9,0.2-3.8,0.1-5.6-0.2c-3-0.5-6.2-1.4-10-2.5c-2.9-0.9-5.8-1.7-8.8-2.5
				c-1.8-0.5-3.5-0.9-5.1-1.3c1.2-1.2,2.5-2.3,3.7-3.2c2.3-1.7,4.6-2.5,6.2-2.9c1.5-0.4,3-0.5,4.1-0.3l0.4,0.1
				C195.1,99.4,198.8,100.6,202.4,102z M180.7,111.1l8.6,2.4l1.9,0.6c3.7,1.1,7.2,2.2,10.6,2.8c-0.5,0.5-1.1,0.9-1.7,1.3
				c-3,1.8-6.1,3-9.4,3.5c-1.9,0.3-3.9,0.3-5.7,0.1c-4.9-0.6-10-1.7-15.4-3c-2.8-0.6-5.8-1.3-8.9-1.8c1.1-1.2,2.3-2.3,3.6-3.3
				c1.9-1.5,4-2.7,6-3.4c1.5-0.5,3.2-0.7,4.5-0.5C176.6,110.1,178.6,110.5,180.7,111.1z M169.9,124.1l0.7,0.2
				c6.2,1.4,11,2.5,15.9,3.2c-0.6,0.5-1.1,1-1.7,1.4c-2.5,2-5.6,3.4-9.1,4c-1.8,0.3-3.7,0.5-5.5,0.5H170c-3-0.1-6.3-0.5-10.1-1.1
				c-0.7-0.1-1.4-0.2-2.1-0.4c-2.3-0.4-4.7-0.8-7-1.1c-1.9-0.2-3.6-0.4-5.2-0.5c1.1-1.5,2.2-2.7,3.3-3.6c1.9-1.6,3.9-2.9,5.8-3.7
				c1.6-0.7,3.1-0.9,4.5-0.8C162.6,122.5,166.3,123.3,169.9,124.1z M172,139c-0.5,0.5-1,1-1.6,1.5c-2.1,1.9-5,3.4-8.9,4.6
				c-1.8,0.5-3.7,0.8-5.6,0.9c-1.2,0-2.5,0-3.8,0c-1.6-0.1-3.4-0.2-5.7-0.4l-6.1-0.5c-2.9-0.2-5.9-0.5-9-0.5c0.9-1.4,2-2.7,3.1-3.8
				c0.9-0.9,1.9-1.8,2.9-2.6c0.9-0.6,1.7-1.1,2.5-1.4c1.5-0.7,3-1.1,4.2-1.1c0.1,0,0.2,0,0.3,0c1.8,0.1,3.7,0.2,6,0.5
				c3.1,0.4,6.2,0.9,8.9,1.3C163.8,138.1,168,138.8,172,139z M130.4,149.6c4-0.1,8.2,0.3,11.7,0.6l7.1,0.6c0.5,0,1,0.1,1.5,0.1
				l1.1,0.1c2.5,0.2,4.5,0.3,6.5,0.3c-0.5,0.5-0.9,1.1-1.5,1.6c-0.7,0.6-1.4,1.2-2.3,1.8c-1.8,1.4-3.9,2.6-6.2,3.4
				c-1.8,0.6-3.8,1-5.6,1.2c-3.2,0.3-6.6,0.3-10.2,0.2h-0.9c-2.6-0.1-5.3-0.2-8.1-0.2h-0.2c-0.6,0-1.1,0-1.7,0c-1.3,0-2.5,0-3.6,0.1
				c0.9-1.6,2-2.9,2.9-4c1.6-1.9,3.4-3.4,5.2-4.4c1.3-0.8,2.6-1.2,3.8-1.3L130.4,149.6z M123,164.5h0.4c3,0.1,6.1,0.1,9,0.2
				c2.5,0.1,4.5,0.1,6.3,0.1c2.4,0,4.5-0.1,6.5-0.2c-0.4,0.5-0.8,1.1-1.3,1.7c-2.1,2.4-4.9,4.4-8.1,5.7c-1.7,0.7-3.6,1.3-5.5,1.6
				c-3.9,0.7-8.4,0.8-13.2,0.9l-2.4,0.1c-2.7,0.1-5.8,0.3-8.9,0.7c0.7-1.5,1.6-2.9,2.5-4.2c1.5-2,3.3-3.6,5-4.7c1.5-1,3-1.5,4.2-1.7
				C119,164.7,120.9,164.5,123,164.5z M117,179.8c1.2,0,2.3-0.1,3.4-0.1c4.5-0.1,8.8-0.3,12.8-0.9c-0.4,0.6-0.8,1.2-1.2,1.8
				c-1.8,2.3-4.5,4.4-7.8,6.2c-1.7,0.9-3.5,1.5-5.3,2c-2.4,0.6-5.2,0.9-8.1,1.2c-0.7,0.1-1.4,0.2-2.1,0.2l-1,0.1
				c-2.6,0.3-5.4,0.5-8.1,0.9c-1.9,0.2-3.6,0.5-5.2,0.8c0.7-1.6,1.4-3,2.3-4.3c1.6-2.4,3-4,4.5-5.1s2.9-1.7,4.2-1.9
				C109.2,180.2,113.2,180,117,179.8z M100.4,196.5l10.6-1.2c3.9-0.4,7.5-0.8,11.1-1.5c-0.3,0.6-0.7,1.2-1.1,1.8
				c-2.1,2.9-4.5,5.2-7.3,6.8c-1.7,1-3.5,1.8-5.3,2.3c-1.3,0.4-2.5,0.7-3.7,1c-1.9,0.4-4,0.8-5.5,1.1l-6.1,1c-3,0.5-6,1-8.9,1.8
				c0.5-1.5,1.2-3,2-4.5c0.7-1.1,1.4-2.2,2.3-3.3c0.7-0.8,1.3-1.5,2-2.1c1.4-1.2,2.8-2,3.9-2.2C96.2,197.1,98.2,196.8,100.4,196.5z
				 M84.7,214.8c3.2-1,6.8-1.8,11.4-2.5l2-0.3c1.7-0.3,3.4-0.6,5.1-0.9l1.2-0.2c0.5-0.1,0.9-0.2,1.4-0.3c2.3-0.4,4.3-0.9,6.3-1.5
				c-0.3,0.6-0.6,1.3-1,2c-0.5,0.8-1,1.6-1.6,2.4c-1.4,1.8-3.2,3.4-5.3,4.8c-1.7,1.2-3.4,2.1-5,2.7c-2.8,1.1-6,1.9-9.8,2.8
				c-3.5,0.8-6.3,1.4-8.9,2.2c-1.9,0.5-3.5,1-5,1.5c0.4-1.7,1-3.2,1.6-4.6c1.2-2.6,2.8-4.4,4-5.6c1.1-1.1,2.3-1.9,3.4-2.3
				L84.7,214.8z M81.8,231c2.9-0.7,5.8-1.5,8.6-2.2c4.6-1,8.7-2,12.5-3.3c-0.3,0.7-0.5,1.3-0.9,2c-1.4,2.7-3.7,5.4-6.4,7.7
				c-1.5,1.2-3.2,2.2-4.9,3c-2.1,0.9-4.4,1.7-7,2.6l-7.8,2.5c-2.6,0.8-5.5,1.8-8.5,2.9c0.3-1.6,0.8-3.2,1.4-4.7
				c1-2.5,2.2-4.5,3.5-5.9c1.2-1.3,2.5-2.2,3.7-2.7C77.7,232.2,79.5,231.7,81.8,231z M79.6,247.4l2.6-0.8c4.5-1.4,8.8-2.7,12.8-4.4
				c-0.2,0.7-0.5,1.3-0.8,2c-1.3,3.2-3.3,5.9-5.8,8.1c-1.4,1.2-3,2.4-4.7,3.3c-2.6,1.4-5.6,2.7-9.3,4.1l-1,0.4
				c-2.5,0.9-5.1,1.9-7.6,2.9c-1.6,0.6-3.1,1.3-4.9,2.1c0.2-1.6,0.6-3.2,1.1-4.8c0.8-2.3,1.9-4.4,3.1-6.1c1.1-1.4,2.3-2.4,3.4-2.9
				C72.3,249.8,76.2,248.5,79.6,247.4z M62.4,270.4c1.6-0.8,3.4-1.7,5.4-2.6c1.8-0.8,3.7-1.5,5.6-2.2c1-0.4,1.9-0.7,2.8-1.1
				c4.6-1.7,8.3-3.2,11.9-5c-0.1,0.7-0.3,1.4-0.6,2.1c-1,3-2.9,5.9-5.4,8.4c-1.3,1.4-2.8,2.6-4.3,3.6c-0.9,0.6-2,1.2-3.3,1.9
				c-1.5,0.8-3.1,1.6-5.1,2.5c-0.7,0.3-1.4,0.6-2.1,1c-1.2,0.5-2.4,1.1-3.6,1.6c-2.6,1.2-5.3,2.6-8,4.1c0.1-1.7,0.3-3.3,0.7-4.9
				c0.3-1.4,0.8-2.6,1.3-3.7c0.5-1,0.9-1.8,1.5-2.5C60.2,272.1,61.3,271,62.4,270.4z M57.2,289.8l0.4-0.3c3.4-2.1,7.1-3.9,10.3-5.4
				c1.4-0.7,2.8-1.3,4.2-1.9c0.8-0.4,1.6-0.7,2.3-1.1c0.8-0.4,1.6-0.8,2.4-1.1c2.3-1.1,4.1-2.1,5.7-3c-0.1,0.7-0.3,1.4-0.5,2.1
				c-0.2,0.9-0.6,1.8-1,2.7c-1.2,2.5-2.4,4.5-3.8,6.1c-1.3,1.5-2.7,2.8-4.2,3.9c-2.1,1.5-4.6,2.9-7.2,4.4l-2.5,1.4
				c-2.3,1.3-4.7,2.5-7.1,3.9c-1.3,0.7-2.9,1.7-4.5,2.7c0-1.7,0.2-3.3,0.4-4.9c0.5-2.7,1.2-4.8,2.2-6.4
				C55.3,291.6,56.2,290.5,57.2,289.8z M53.8,309.2c1.5-1.1,3.2-2.1,5.2-3.2c2.3-1.3,4.6-2.5,6.8-3.8l1.1-0.6c1.9-1.1,4-2.2,6-3.3
				c2-1.1,3.7-2.1,5.2-3.2c-0.1,0.7-0.2,1.4-0.4,2.1c-0.7,3.4-2.1,6.5-4.1,9.1c-1.2,1.5-2.6,3-4,4.1c-3.1,2.6-6.9,5-10.9,7.5
				l-2.1,1.3c-2.5,1.6-5,3.2-7.4,5c-0.1-1.5-0.1-3.1,0.2-4.9c0.3-2.4,1-4.7,1.9-6.6C51.9,311.1,52.8,309.9,53.8,309.2z M53.4,412.8
				c0.3-1.8,0.8-3.3,1.6-4.3c2.4-3.2,4.8-6.1,7.5-8.9l1.7-1.8c3.3-3.5,6.5-6.9,9.1-10.4c0.2,0.7,0.3,1.4,0.4,2.2
				c0.4,3,0,6.3-1.2,9.9c-0.6,1.8-1.4,3.6-2.3,5.1c-1.7,2.8-4,5.6-6.1,8.2c-2.1,2.4-4,4.9-5.7,7.2c-1.2,1.6-2.2,3-3.1,4.2
				c-0.7-1.6-1.2-3.1-1.5-4.7C53.2,417.5,53.1,415.3,53.4,412.8z M64.2,447.6l0.2-0.4c1.9-3.4,4.3-6.9,6.4-9.9
				c1.3-1.8,2.6-3.6,3.8-5.4l0.7-1c0.4-0.5,0.7-1.1,1.1-1.6l0.6-0.9c1-1.5,2-3,2.9-4.6c0.2,0.7,0.4,1.3,0.6,2
				c0.3,1.1,0.4,1.9,0.6,2.9c0.3,2.3,0.2,4.7-0.3,7.1c-0.3,1.7-0.9,3.6-1.8,5.5c-1.2,2.7-2.8,5.5-4.9,9c-1.6,2.5-3.2,5.1-4.8,7.8
				c-0.8,1.4-1.7,2.9-2.5,4.6c-0.9-1.5-1.6-3-2-4.4c-0.8-2.3-1.2-4.7-1.2-6.8C63.4,450,63.7,448.6,64.2,447.6z M71.1,466
				c0.7-1.6,1.6-3.4,2.7-5.4c1-1.7,2-3.4,3.1-5.1c0.5-0.9,1.1-1.8,1.6-2.6c2.5-4,4.7-7.6,6.4-11.2c0.3,0.7,0.6,1.4,0.8,2
				c1,2.9,1.3,6.4,0.8,10c-0.2,1.9-0.6,3.8-1.3,5.5c-1.2,3.2-3,6.6-4.9,10.2c-0.7,1.3-1.4,2.6-2,3.9c-1.3,2.6-2.7,5.3-3.9,8.1
				c-0.9-1.4-1.8-2.8-2.4-4.3c-0.9-1.9-1.4-4.1-1.6-6.6C70.3,468.8,70.5,467.2,71.1,466z M78.9,484.4c1.4-3.7,3.3-7.4,5-10.6
				c0.8-1.5,1.6-3,2.3-4.5c1.9-3.5,3.6-6.8,4.9-10.1c0.3,0.6,0.6,1.3,0.9,2c0.6,1.4,1,3,1.2,4.8c0.3,1.6,0.4,3.4,0.3,5.1
				c-0.1,1.9-0.4,3.9-1,5.6c-1,3.1-2.4,6.4-3.8,9.6l-0.6,1.3c-1,2.3-2.1,4.6-3.1,7c-0.6,1.4-1.3,3.1-1.9,4.9c-1-1.3-1.9-2.7-2.6-4.1
				c-1.1-2.2-1.9-4.4-2.1-6.5C78.3,487.2,78.4,485.7,78.9,484.4z M87.9,502.3c0.6-1.9,1.3-3.8,2.1-5.7c1.2-2.8,2.4-5.6,3.6-8.3
				c1.7-3.8,3.5-7.8,4.9-11.9c0.4,0.6,0.7,1.3,1,1.9c1.5,2.9,2.2,6.2,2.2,9.7c0,1.6-0.2,3.5-0.6,5.7c-0.3,1.1-0.6,2.3-1,3.7
				c-0.5,1.8-1.2,3.6-1.8,5.3l-2.2,5.8c-1.1,3-2.1,5.8-2.8,8.6c-1.2-1.4-2.2-2.7-2.9-3.9c-0.7-1.1-1.2-2.4-1.7-3.6
				c-0.4-1-0.6-1.9-0.8-2.8C87.6,505,87.6,503.5,87.9,502.3z M98,519.7l0.1-0.4c1-3.8,2.1-7.5,3.5-11.1c0.9-2.3,1.7-4.5,2.5-6.7
				c0.3-0.8,0.6-1.7,0.9-2.5c0.8-2.4,1.4-4.4,1.9-6.2c0.5,0.6,0.9,1.2,1.2,1.8c0.4,0.8,0.8,1.6,1.2,2.6c0.8,1.9,1.3,4.2,1.5,7
				c0.2,1.9,0.1,3.8-0.2,5.6c-0.5,2.9-1.3,6-2.5,10c-0.9,2.9-1.7,5.8-2.5,8.8c-0.4,1.4-0.8,3.2-1.3,5.1c-1.2-1.2-2.3-2.5-3.2-3.8
				c-1.3-1.8-2.3-3.9-2.9-6.2C97.9,522.3,97.8,520.8,98,519.7z M109.4,535.8c0.3-1.8,0.8-3.8,1.3-5.9l2.4-8.6l0.6-1.8
				c1.1-3.7,2.2-7.2,2.8-10.7c0.5,0.6,0.9,1.1,1.2,1.7c1.8,2.9,3,6.1,3.5,9.4c0.3,1.9,0.3,3.9,0.1,5.7c-0.6,4.9-1.8,10.2-3,15.4
				c-0.6,2.8-1.3,5.8-1.8,8.9c-1.2-1.1-2.3-2.3-3.3-3.6c-1.5-1.9-2.7-4-3.4-6C109.3,538.7,109.1,537.1,109.4,535.8z M121.7,551.5
				c0.3-3.5,1.1-7.3,1.9-10.8l0.1-0.7c1.2-5.2,2.5-10.6,3.2-15.9c0.5,0.6,1,1.1,1.4,1.7c2,2.5,3.4,5.6,4,9.1
				c0.4,1.9,0.5,3.9,0.5,5.7c-0.1,3-0.5,6.2-1.1,10.1l-0.4,2.1c-0.4,2.3-0.8,4.7-1.1,7.1c-0.2,1.5-0.4,3.3-0.6,5.2
				c-1.5-1.1-2.7-2.2-3.6-3.3c-1.6-1.9-2.9-3.9-3.7-5.8C121.9,554.3,121.6,552.8,121.7,551.5z M135.6,560.3c0.3-2.8,0.8-5.6,1.3-8.8
				c0.8-4.8,1.5-8.9,1.6-12.8c0.5,0.5,1.1,1,1.5,1.6c1.9,2.1,3.4,5,4.6,8.9c0.5,1.9,0.9,3.8,0.9,5.6c0,1.1,0,2.4,0,3.8
				c-0.1,1.7-0.2,3.5-0.4,5.7l-0.5,6.1c-0.2,2.7-0.5,5.8-0.5,9c-1.4-0.9-2.7-2-3.8-3.1c-1-0.9-1.9-1.9-2.6-2.9
				c-0.6-0.8-1-1.7-1.4-2.5c-0.8-1.6-1.1-3.2-1.1-4.4C135.2,564.6,135.3,562.7,135.6,560.3z M164.2,584c0-2,0.1-3.9,0.1-5.8
				c0.1-3.8,0.3-8.3-0.1-12.9c0.5,0.4,1.1,0.8,1.7,1.3c2.4,2.1,4.4,4.9,5.7,8.1c0.6,1.6,1.3,3.6,1.6,5.5c0.7,3.9,0.8,8.4,0.9,13.1
				l0.1,2.6c0.1,2.8,0.3,5.9,0.7,8.9c-1.5-0.7-2.9-1.6-4.2-2.5c-1.9-1.5-3.6-3.3-4.7-5c-1-1.5-1.5-3-1.7-4.2c-0.2-1.9-0.3-3.9-0.3-6
				L164.2,584z M180.2,578.6c2.3,1.8,4.4,4.4,6.2,7.8c0.9,1.7,1.6,3.5,2,5.3c0.6,2.5,0.9,5.2,1.2,8.1l0.3,3c0.3,2.6,0.5,5.4,0.9,8.1
				c0.3,2,0.5,3.7,0.8,5.2c-1.5-0.7-3-1.4-4.3-2.3c-2.4-1.6-4-3-5.1-4.6c-1.1-1.4-1.7-2.9-1.9-4.2c-0.6-3.9-0.8-7.9-1-11.6
				c0-1.2-0.1-2.3-0.1-3.5c-0.1-4.5-0.3-8.8-0.9-12.8C179,577.7,179.6,578.1,180.2,578.6z M195.2,589.6c2.9,2.1,5.2,4.5,6.8,7.3
				c1,1.7,1.7,3.5,2.3,5.3c0.4,1.3,0.7,2.5,1,3.7c0.4,1.6,0.7,3.3,1.1,5.5c0.3,2,0.7,4,1,6.1c0.5,3.2,1.1,6.1,1.8,8.9
				c-1.5-0.5-3-1.2-4.5-2c-1.2-0.7-2.3-1.4-3.3-2.3c-0.8-0.7-1.5-1.4-2.1-2c-1.2-1.4-2-2.7-2.2-3.9c-0.4-1.8-0.7-3.7-1-6l-0.2-1.6
				c-0.3-2.5-0.6-4.9-0.8-7.4l-0.2-1.8c-0.4-3.8-0.8-7.5-1.5-10.9C194,588.8,194.6,589.2,195.2,589.6z M210.2,604.8
				c-0.4-2.2-0.9-4.3-1.5-6.3c0.6,0.3,1.3,0.6,2,1c0.8,0.5,1.6,1,2.4,1.6c1.8,1.4,3.4,3.2,4.8,5.3c1.2,1.7,2.1,3.4,2.7,5
				c1.1,2.8,1.9,6,2.8,9.8c0.7,3.5,1.4,6.3,2.2,8.9c0.4,1.4,0.9,3.2,1.5,5c-1.6-0.4-3.2-1-4.6-1.6c-2.6-1.2-4.4-2.8-5.6-4
				c-1.1-1.1-1.9-2.3-2.3-3.4l-0.1-0.4c-1-3.2-1.7-6.8-2.5-11.4l-1.2-7.1C210.6,606.5,210.4,605.7,210.2,604.8z M225,607.6
				c0.7,0.3,1.3,0.5,2,0.9c2.7,1.4,5.4,3.7,7.7,6.4c1.2,1.5,2.2,3.2,3,4.9c1,2.1,1.8,4.5,2.6,7l2.5,7.8c0.8,2.6,1.8,5.5,2.9,8.5
				c-1.6-0.3-3.2-0.8-4.7-1.4c-2.5-1-4.5-2.2-5.9-3.5c-1.3-1.2-2.2-2.5-2.7-3.7c-0.6-1.7-1.2-3.5-1.8-5.8l-2.2-8.6
				C227.3,615.3,226.4,611.3,225,607.6z M243.9,616.4c3.2,1.4,5.9,3.3,8.1,5.8c1.2,1.4,2.4,3,3.3,4.7c1.5,2.8,2.9,6.1,4.1,9.3
				l0.4,1.2c0.9,2.4,1.8,4.9,2.9,7.4c0.6,1.5,1.3,3.1,2.1,4.8c-1.6-0.2-3.2-0.6-4.8-1.1c-2.4-0.8-4.5-1.9-6.1-3.2
				c-1.4-1.1-2.4-2.3-2.9-3.4c-1.6-3.7-2.9-7.7-3.9-11.1l-0.8-2.6c-1.4-4.5-2.7-8.8-4.4-12.8C242.5,615.8,243.2,616.1,243.9,616.4z
				 M265.2,637.2c-0.4-1-0.7-1.9-1.1-2.9c-1.7-4.6-3.2-8.4-5-11.9c0.7,0.1,1.4,0.3,2.1,0.6c3,1,5.9,2.9,8.4,5.4
				c1.4,1.3,2.6,2.8,3.6,4.3c0.6,0.9,1.2,2,1.9,3.3c0.8,1.5,1.6,3.1,2.5,5.1c0.3,0.7,0.7,1.5,1,2.2c0.5,1.1,1,2.3,1.6,3.4
				c1.1,2.4,2.5,5.2,4.1,8c-1.7-0.1-3.3-0.3-4.9-0.7c-1.3-0.3-2.6-0.8-3.7-1.3c-1-0.5-1.8-1-2.5-1.5c-1.5-1-2.6-2.1-3.1-3.3
				c-0.8-1.6-1.7-3.3-2.6-5.4C266.6,640.9,265.9,639,265.2,637.2z M281.8,638.3c-0.3-0.7-0.6-1.4-1-2.1l-0.5-1
				c-0.2-0.5-0.4-0.9-0.7-1.4c-1.1-2.3-2.1-4.1-3-5.7c0.7,0.1,1.4,0.3,2.1,0.5c0.9,0.3,1.8,0.6,2.7,1c2.5,1.2,4.5,2.4,6.1,3.8
				c1.5,1.3,2.8,2.7,3.9,4.2c1.5,2.1,2.9,4.6,4.3,7.1l1.1,1.9c1.4,2.5,2.8,5.2,4.3,7.7c1,1.7,1.9,3.2,2.7,4.5
				c-1.7,0-3.3-0.2-4.9-0.4c-2.7-0.5-4.8-1.2-6.4-2.2c-1.4-0.8-2.4-1.8-3.1-2.8l-0.2-0.4c-2.1-3.5-3.9-7.2-5.4-10.4
				C283.1,641.3,282.4,639.8,281.8,638.3z M301.2,643.8c-1.1-1.9-2.2-4-3.3-6c-1.1-2-2.2-3.7-3.2-5.2c0.7,0.1,1.4,0.2,2.1,0.4
				c3.4,0.7,6.4,2.1,9.1,4.1c1.5,1.2,3,2.5,4.1,4c2.6,3,5,6.9,7.5,10.9l1.5,2.5c1.5,2.4,3.1,4.8,4.8,7.1c-1.5,0.1-3.1,0.1-4.9-0.2
				c-2.5-0.3-4.8-1-6.6-1.9c-1.7-0.8-2.9-1.8-3.5-2.8c-1-1.4-2-3.1-3.3-5.1l-1.1-2.1C303.3,647.6,302.2,645.7,301.2,643.8z
				 M320.7,647.5c-2.6-4.1-5-8.1-7.8-11.4c0.8,0,1.5,0.1,2.2,0.2c3.1,0.4,6.4,1.6,9.3,3.6c1.9,1.3,3.3,2.5,4.4,3.6
				c2.1,2.2,4.1,4.8,6.4,8l0.9,1.3c1.5,2.1,3,4.2,4.5,6.1c1.2,1.5,2.3,2.9,3.3,4.1c-1.4,0.2-2.8,0.3-4.1,0.3c-0.3,0-0.5,0-0.8,0
				c-2.5-0.2-4.8-0.7-6.7-1.5c-1.6-0.7-2.9-1.6-3.7-2.6c-1.2-1.5-2.4-3-3.5-4.6c-1-1.5-2-3.1-3.2-5L320.7,647.5z M331.5,638.1
				c0.7,0,1.4,0,2.2,0c2.9,0.2,6.1,1.2,9.5,3c1.7,0.9,3.3,2.1,4.6,3.3c0.9,0.8,1.7,1.7,2.7,2.7c1.2,1.3,2.4,2.7,3.7,4.4l0.5,0.6
				c1.1,1.3,2.3,2.7,3.5,4.1c1.8,2.2,3.8,4.5,6,6.7c-1.7,0.3-3.3,0.5-4.9,0.6c-1.3,0-2.7,0-3.9-0.2c-1-0.2-2-0.5-2.8-0.8
				c-1.7-0.6-3-1.4-3.9-2.4c-1.2-1.3-2.4-2.7-3.9-4.6c-1.7-2.2-3.6-4.6-5.3-7.2C336.7,644.5,334.2,641.1,331.5,638.1z M368.5,638.8
				c0.7-0.1,1.4-0.2,2.2-0.2c3.2-0.3,6.5,0.3,9.8,1.7c1.6,0.7,3.3,1.6,5,2.8c3.3,2.3,6.5,5.4,10,8.6l1.8,1.6
				c2.4,2.2,4.6,4.2,6.8,5.9c-1.7,0.6-3.3,1-4.7,1.1c-2.4,0.3-4.8,0.3-6.9-0.2c-1.7-0.4-3.2-1-4.2-1.8c-1.5-1.2-3-2.6-4.4-4.1
				l-6.2-6.5C374.3,644.3,371.4,641.4,368.5,638.8z M415.4,642.2c-3.4-2.8-6.6-5.5-9.9-7.6c0.7-0.2,1.4-0.4,2.1-0.5
				c1.4-0.3,3.1-0.3,4.9-0.3c1.7,0,3.4,0.3,5,0.7c1.8,0.5,3.7,1.2,5.3,2.1c1,0.5,2.1,1.2,3.3,2l1,0.6c1.2,0.8,2.5,1.6,3.7,2.5
				c1.6,1.1,3.3,2.3,5,3.5c2.4,1.7,4.9,3.4,7.5,5c-1.5,0.7-3,1.3-4.6,1.7c-1.3,0.4-2.6,0.6-3.9,0.8c-1.1,0.1-2.1,0.1-2.8,0.1
				c-1.8-0.2-3.3-0.6-4.4-1.3c-1.5-1-3.1-2.1-5-3.5c-2.4-1.9-4.7-3.7-7-5.5L415.4,642.2z M431.1,635.7l-3-2c-1.5-1-3.1-2.1-4.7-2.9
				c0.7-0.2,1.3-0.4,2-0.6c1-0.2,1.9-0.4,2.9-0.6c2.3-0.3,4.7-0.2,7.1,0.3c1.7,0.3,3.6,0.9,5.5,1.8c2.9,1.3,6,3.1,8.9,4.9l0.7,0.4
				c2.3,1.5,4.7,3,7.2,4.4c1.4,0.9,2.9,1.7,4.6,2.5c-1.5,0.9-3,1.6-4.4,2c-2.3,0.8-4.6,1.2-6.8,1.2l0,0c-1.6,0-3-0.3-4-0.7l-0.4-0.2
				c-3.5-2-6.9-4.3-9.9-6.4c-1.4-1-2.7-1.9-4-2.8L431.1,635.7z M452.6,632.1c-3.9-2.5-7.5-4.7-11.2-6.4c0.6-0.3,1.3-0.6,2-0.8
				c2.9-1,6.3-1.3,10-0.8c1.9,0.2,3.8,0.6,5.5,1.3c3.2,1.2,6.7,3,10.3,4.9c1.2,0.7,2.5,1.3,3.8,2c2.4,1.2,5.2,2.6,8.1,3.9
				c-1.4,0.9-2.8,1.7-4.3,2.4c-1.9,0.9-4.1,1.4-6.6,1.6c-1.8,0.1-3.3-0.2-4.5-0.7c-1.6-0.8-3.4-1.6-5.4-2.7c-1.8-1-3.5-2.1-5.2-3.1
				C454.2,633.1,453.4,632.6,452.6,632.1z M458.9,619.5c0.6-0.3,1.3-0.6,1.9-0.9c1.4-0.6,3-1,4.8-1.2c1.6-0.3,3.4-0.4,5.1-0.3
				c1.9,0.1,3.9,0.4,5.6,1c3,1,6.2,2.3,9.5,3.8l1.2,0.5c2.3,1,4.7,2.1,7.2,3.1c1.9,0.8,3.4,1.4,4.9,2c-1.3,1-2.7,1.9-4.1,2.6
				c-2.2,1.1-4.4,1.9-6.5,2.1c-1.8,0.2-3.4,0-4.6-0.5c-3.7-1.4-7.2-3.2-10.6-4.9c-1.5-0.8-3-1.5-4.4-2.3
				C465.5,622.5,462.2,620.8,458.9,619.5z M487.9,617c-3.8-1.7-7.8-3.5-11.9-4.9c0.6-0.4,1.3-0.7,1.9-1c2.9-1.5,6.2-2.2,9.7-2.2h0.1
				c1.6,0,3.5,0.2,5.6,0.6c1.1,0.2,2.3,0.6,3.7,1c1.9,0.6,3.8,1.2,5.3,1.8l5.8,2.2c3,1.1,5.8,2.1,8.6,2.8c-1.4,1.2-2.7,2.2-3.9,2.9
				s-2.4,1.2-3.6,1.7c-1,0.4-1.9,0.6-2.8,0.8c-1.7,0.3-3.3,0.3-4.5,0c-1.8-0.5-3.6-1.3-5.4-2l-0.3-0.1c-2-0.9-4-1.7-5.9-2.6
				L487.9,617z M518.9,612.5c-3.8-1-7.5-2.1-11.1-3.5c-2.3-0.9-4.5-1.7-6.7-2.5c-0.8-0.3-1.7-0.6-2.5-0.9c-2.3-0.8-4.3-1.4-6.2-1.8
				c0.6-0.4,1.2-0.8,1.8-1.2c0.8-0.4,1.6-0.8,2.6-1.2c1.9-0.8,4.2-1.3,7-1.5c1.9-0.2,3.9-0.1,5.6,0.2c3.2,0.5,6.7,1.5,10,2.5
				c2.7,0.9,5.6,1.7,8.8,2.5c1.9,0.5,3.6,0.9,5.1,1.3c-1.2,1.2-2.4,2.3-3.8,3.2c-2.2,1.7-4.6,2.5-6.2,2.9c-1.5,0.4-3,0.5-4.1,0.3
				L518.9,612.5z M529.4,599.9c-2.6-0.7-5.1-1.4-7.6-2.1L519,597c-3.7-1.1-7.3-2.2-10.7-2.8c0.5-0.5,1.1-0.9,1.7-1.3
				c3-1.8,6.1-3,9.4-3.5c1.9-0.3,3.9-0.3,5.7-0.1c4.8,0.6,9.9,1.7,15.4,3c2.8,0.6,5.8,1.3,8.9,1.8c-1.1,1.2-2.3,2.3-3.5,3.3
				c-2,1.5-4,2.7-6,3.4c-1.5,0.5-3.2,0.7-4.5,0.5C533.5,600.9,531.6,600.5,529.4,599.9z M539.6,586.8c-6.2-1.5-11-2.5-15.9-3.2
				c0.6-0.5,1.2-1,1.7-1.4c2.5-2,5.6-3.4,9.1-4c1.9-0.3,3.7-0.5,5.4-0.5h0.3c3,0.1,6.3,0.5,10.1,1.1c0.7,0.1,1.4,0.2,2.1,0.4
				c2.3,0.4,4.7,0.8,7,1.1c2,0.2,3.7,0.4,5.2,0.5c-1.1,1.5-2.2,2.7-3.3,3.6c-1.9,1.6-3.9,2.9-5.8,3.7c-1.4,0.6-2.7,0.9-3.8,0.9
				c-0.2,0-0.4,0-0.6,0c-3.5-0.3-7.1-1.1-10.7-1.9L539.6,586.8z M551.1,573.7c-4.4-0.8-8.7-1.5-12.8-1.6c0.5-0.5,1-1.1,1.6-1.5
				c2.1-1.9,5-3.4,8.9-4.6c1.8-0.5,3.8-0.8,5.6-0.9c1.2,0,2.5,0,3.8,0c1.6,0.1,3.4,0.2,5.7,0.4l6.1,0.5c2.7,0.2,5.8,0.5,9,0.5
				c-0.9,1.4-2,2.7-3.1,3.8c-0.9,1-1.9,1.9-2.9,2.6c-0.9,0.6-1.7,1.1-2.5,1.4c-1.5,0.7-3,1.1-4.2,1.1h-0.2c-1.8-0.1-3.8-0.2-6-0.5
				C556.8,574.6,553.7,574.1,551.1,573.7z M578.9,561.4c-3.7,0-7.5-0.3-10.8-0.6l-9.7-0.9c-2.3-0.2-4.1-0.3-5.9-0.3
				c-0.2,0-0.4,0-0.6,0c0.5-0.5,0.9-1.1,1.5-1.6c0.6-0.6,1.3-1.2,2.3-1.9c1.8-1.4,3.9-2.6,6.2-3.4c1.8-0.6,3.8-1,5.6-1.2
				c3.2-0.3,6.6-0.3,10.2-0.2h0.4c2.8,0.1,5.7,0.2,8.7,0.2h0.1c0.6,0,1.1,0,1.7,0c1.4,0,2.6,0,3.6-0.1c-0.9,1.6-2,2.9-2.9,3.9
				c-1.6,1.9-3.4,3.4-5.2,4.4c-1.3,0.8-2.6,1.2-3.8,1.3L578.9,561.4z M586.9,546.5L586.9,546.5l-3.1-0.1c-2-0.1-4.1-0.1-6-0.1
				c-2.4-0.1-4.4-0.1-6.3-0.1c-2.4,0-4.5,0.1-6.5,0.2c0.4-0.5,0.8-1.1,1.3-1.7c2.1-2.4,4.9-4.4,8.1-5.7c1.8-0.7,3.6-1.3,5.5-1.6
				c3.9-0.7,8.4-0.8,13.2-1l2.5-0.1c2.7-0.1,5.8-0.3,8.9-0.7c-0.7,1.5-1.6,2.9-2.5,4.2c-1.5,1.9-3.2,3.6-5,4.7c-1.5,1-3,1.5-4.2,1.7
				C590.4,546.4,588.7,546.5,586.9,546.5z M593.2,531.2c-1.1,0-2.2,0.1-3.3,0.1c-4.6,0.1-8.9,0.3-13,0.9c0.4-0.6,0.8-1.2,1.2-1.8
				c1.8-2.3,4.4-4.4,7.8-6.3c1.7-0.9,3.5-1.5,5.3-2c2.5-0.6,5.2-0.9,8.1-1.2l2.3-0.3c2.9-0.3,5.8-0.6,8.8-1c1.9-0.3,3.7-0.5,5.2-0.8
				c-0.7,1.6-1.4,3-2.3,4.3c-1.6,2.4-3,4-4.5,5.1c-1.4,1-2.9,1.7-4.2,1.9C600.9,530.8,596.9,531,593.2,531.2z M609.8,514.5
				l-10.7,1.2c-3.8,0.4-7.5,0.8-11,1.5c0.3-0.6,0.7-1.2,1.1-1.8c2.1-2.9,4.5-5.2,7.3-6.8c1.6-1,3.5-1.7,5.3-2.3
				c1.4-0.4,2.5-0.7,3.7-1c1.7-0.4,3.5-0.7,5.5-1.1c2-0.3,4-0.7,6.1-1c2.9-0.5,5.9-1,8.9-1.8c-0.5,1.5-1.2,3-2,4.5
				c-0.7,1.2-1.5,2.3-2.3,3.3c-0.7,0.8-1.3,1.5-2,2.1c-1.5,1.2-2.7,2-3.9,2.2C614,513.9,612.1,514.2,609.8,514.5z M625.4,496.2
				c-3.2,1-6.8,1.8-11.4,2.5l-5.2,0.9l-4.5,0.8c-2.3,0.4-4.4,0.9-6.2,1.5c0.3-0.6,0.6-1.3,1-2c0.5-0.8,1-1.6,1.6-2.4
				c1.5-1.8,3.2-3.4,5.3-4.8c1.7-1.2,3.4-2.1,5-2.7c2.8-1.1,6-1.9,9.8-2.8c3.5-0.7,6.3-1.4,8.9-2.2c1.9-0.5,3.5-1,5-1.5
				c-0.4,1.6-1,3.2-1.6,4.6c-1.2,2.6-2.8,4.4-4,5.6c-1.1,1.1-2.3,1.9-3.4,2.3L625.4,496.2z M628.3,480l-8.7,2.2
				c-4.8,1.1-8.8,2-12.5,3.3c0.3-0.7,0.5-1.3,0.9-2c1.4-2.7,3.7-5.4,6.4-7.7c1.5-1.2,3.2-2.2,4.9-3c2.1-0.9,4.4-1.7,7-2.6
				c2.5-0.8,5.1-1.6,7.8-2.5c2.6-0.8,5.5-1.8,8.5-2.9c-0.3,1.6-0.8,3.2-1.4,4.7c-1,2.5-2.2,4.5-3.5,5.9c-1.2,1.3-2.5,2.2-3.7,2.7
				C632.4,478.8,630.5,479.4,628.3,480z M630.5,463.6l-2.6,0.8c-4.5,1.4-8.7,2.7-12.8,4.4c0.2-0.7,0.5-1.4,0.8-2
				c1.3-3.1,3.3-5.8,5.8-8.1c1.4-1.2,3-2.3,4.7-3.3c2.8-1.5,6.1-2.9,9.3-4.1l0.8-0.3c2.6-0.9,5.2-1.9,7.8-3c1.5-0.6,3.1-1.3,4.8-2.1
				c-0.2,1.6-0.6,3.2-1.1,4.8c-0.8,2.3-1.9,4.4-3.1,6.1c-1.1,1.4-2.3,2.4-3.4,2.9C637.9,461.2,634,462.5,630.5,463.6z M647.7,440.6
				c-1.6,0.8-3.3,1.6-5.4,2.6c-1.8,0.8-3.7,1.5-5.5,2.2c-1,0.4-1.9,0.7-2.9,1.1c-4.4,1.6-8.3,3.2-11.9,5c0.1-0.7,0.3-1.4,0.6-2.1
				c1-3,2.9-5.9,5.4-8.4c1.3-1.4,2.8-2.6,4.3-3.6c1-0.6,2.1-1.2,3.3-1.9c1.5-0.8,3.2-1.6,5.1-2.5c0.7-0.3,1.5-0.7,2.2-1
				c1.1-0.5,2.3-1,3.4-1.6c2.6-1.2,5.3-2.5,8-4.1c-0.1,1.7-0.3,3.3-0.7,4.9c-0.3,1.2-0.7,2.4-1.3,3.7c-0.5,1-0.9,1.8-1.5,2.5
				C650,438.9,648.9,440,647.7,440.6z M653,421.2l-0.4,0.3c-3.4,2.1-7.1,3.9-10.3,5.4c-1.4,0.7-2.9,1.4-4.4,2
				c-0.7,0.3-1.4,0.6-2.1,1l-2.4,1.1c-2.2,1.1-4.1,2-5.7,3c0.1-0.7,0.3-1.4,0.5-2.1c0.2-0.9,0.6-1.7,1-2.7c1.2-2.5,2.4-4.4,3.8-6.1
				c1.2-1.5,2.7-2.8,4.2-3.9c2.2-1.5,4.7-3,7.3-4.5l2.3-1.3c2.4-1.3,4.8-2.6,7.2-4c1.3-0.8,2.9-1.7,4.5-2.7c0,1.7-0.2,3.3-0.4,4.9
				c-0.5,2.7-1.2,4.8-2.2,6.4C654.9,419.4,654,420.5,653,421.2z M656.4,401.8c-1.5,1-3.1,2.1-5.1,3.3l-7.9,4.4c-1.8,1-4,2.2-6,3.3
				c-2,1.1-3.7,2.1-5.2,3.2c0.1-0.7,0.2-1.4,0.4-2.1c0.7-3.4,2.1-6.4,4.1-9.1c1.2-1.6,2.6-3,4-4.1c3.1-2.6,6.9-5,11-7.5l2.4-1.5
				c2.4-1.5,4.8-3.1,7.1-4.8c0.1,1.5,0.1,3.1-0.2,4.9c-0.3,2.5-1,4.7-1.9,6.6C658.3,399.9,657.4,401.1,656.4,401.8z"/>
		</g>
	</g>
	<g>
		<g>
			<g>
				<path class="st3" d="M351.8,622.9c-14.3-25-37.7-38.9-63-49.6c-33.7-14.3-63.6-33.9-87.5-61.8c-8.2-9.6-15.5-19.9-23.6-30.4
					c-2,3.6-3.9,7.2-5.9,10.6c-3.8,6.5-7.6,6.8-12.3,0.7c-7.8-10.3-11.6-22.3-12.3-34.8c-1-16.9-0.5-33.8,0-50.7
					c0.3-8.1,3.1-9.6,11.1-7.1c29.5,9,50.9,28.5,68.2,53.2c3.3,4.7,0.9,8.8-4.8,9.2c-3.6,0.3-7.2,0.1-10.9,0.1
					c-0.3,0.5-0.5,1.1-0.7,1.6c4.2,4.1,8,8.5,12.5,12.2c20.4,17.2,43.4,28.1,70.4,30.1c13.8,1,19.9-1.5,23.9-15
					c4.6-15.5,8.8-31.6,10-47.6c2-26.5,1.7-53.1,1.9-79.7c0.3-27.7,0-55.4,0-83.1c0-2.5,0-5.1,0-8.4c-12.7,0-24.8-0.1-36.9,0.1
					c-1.5,0-3.1,1.9-4.4,3.2c-12.4,13.1-31.7,14.1-44.5,2.2c-12.9-12.1-13.7-31.8-1.8-44.5c12.1-12.7,31.2-13.2,44.6-1.1
					c1.5,1.3,3.5,2.1,5.4,2.8c1.1,0.4,2.5,0.1,3.8,0.1c10.9,0,21.8,0,33.9,0c0-8.2,0.3-16-0.2-23.8c-0.1-1.6-2.8-3.4-4.7-4.5
					c-41.1-23.2-44.2-79.5-6-107.1c26.9-19.4,64.7-14,86.1,12.3c20.4,25.2,17.6,63.2-6.4,85.2c-3.3,3-6.8,6.4-10.8,8
					c-6.4,2.7-7.5,7-7,13.1c0.4,5.3,0.1,10.7,0.1,16.8c13.1,0,25.7,0.1,38.3-0.1c1.6,0,3.4-1.6,4.7-2.8c10.9-9.6,24.9-11.3,37.1-4.6
					c11.6,6.4,17.8,20,15.2,33.5c-2.5,13-13.1,23-27.1,24.9c-10.5,1.3-19.2-2.5-26.8-9.8c-2.1-2.1-5.6-3.8-8.6-3.9
					c-10.7-0.5-21.4-0.2-32.2-0.2c-0.3,1.3-0.7,2-0.7,2.8c0.1,52.1-0.5,104.3,0.7,156.4c0.4,17.6,5.3,35.1,8.2,52.6
					c0.3,1.9,1.1,3.7,1.8,5.5c5.5,14.3,10.1,17.4,25.2,16.3c33.5-2.3,60.1-18.2,82.2-43.9c-3.8,0-7.5,0.2-11.2-0.1
					c-5.9-0.4-8.2-4.4-4.9-9.2c17.6-25,39.5-44.6,69.5-53.7c6.1-1.9,9-0.3,9.7,5.6c2.7,23.6,3.6,47.2-3.8,70.1
					c-2,6.2-5.4,12.1-9,17.6c-3.7,5.6-7.9,5-11.4-0.8c-2.1-3.5-3.9-7-6.4-11.5c-1.9,2.6-3.4,4.6-4.8,6.6
					c-23.2,35.7-54.5,62.2-93.1,80.7c-16.8,8-33.2,17-49.2,26.3c-11.7,6.8-19.8,17.6-26.6,29.1C355.2,622.9,353.5,622.9,351.8,622.9
					z M354.3,113.7c-20.8,0.1-37.7,17-37.7,37.7c0.1,21,17.4,38.4,38.1,38.1s37.6-17.2,37.7-37.9
					C392.5,130.6,375.3,113.6,354.3,113.7z"/>
				<path class="st3" d="M354.4,178.3c-14.8,0.1-27.1-12.2-27-27.1c0.1-14.4,12.3-26.6,26.8-26.7s26.8,12,27,26.5
					C381.4,165.8,369.2,178.2,354.4,178.3z"/>
			</g>
		</g>
	</g>
</g>
</svg>
